<?xml version="1.0" encoding="utf-8"?>
<!-- Generator: Adobe Illustrator 16.0.3, SVG Export Plug-In . SVG Version: 6.00 Build 0)  -->
<!DOCTYPE svg PUBLIC "-//W3C//DTD SVG 1.1//EN" "http://www.w3.org/Graphics/SVG/1.1/DTD/svg11.dtd">
<svg version="1.1" xmlns="http://www.w3.org/2000/svg" xmlns:xlink="http://www.w3.org/1999/xlink" x="0px" y="0px" width="300px"
	 height="300px" viewBox="0 0 300 300" enable-background="new 0 0 300 300" xml:space="preserve">
<g id="Layer_1" display="none">
	<path display="inline" fill="#FF5354" d="M270.456,165.091l-3.726-24.325c1.154-0.673,1.863-1.91,1.863-3.244
		c0-2.076-1.682-3.757-3.759-3.757c-0.14,0.003-0.279,0.013-0.421,0.033l-24.915-43.603c0.375-0.601,0.574-1.288,0.577-1.991
		c0-2.077-1.682-3.759-3.757-3.759c-0.673,0.003-1.329,0.184-1.907,0.524l-49.118-29.778c-0.379-1.723-1.902-2.95-3.666-2.958
		c-1.354,0.004-2.606,0.734-3.27,1.915l-45.599,1.699c-0.711-0.804-1.729-1.261-2.804-1.264c-1.542,0-2.931,0.948-3.491,2.382
		L66.976,84.398c-0.455-0.19-0.948-0.287-1.442-0.287c-2.009,0.004-3.657,1.585-3.748,3.594l-16.918,18.109l-3.388,3.205
		c-0.253-0.054-0.514-0.081-0.771-0.081c-2.076,0-3.758,1.682-3.758,3.759c0,1.021,0.417,1.995,1.155,2.703l-9.025,32.308
		c-1.151,0.672-1.862,1.903-1.862,3.238c0,1.808,1.289,3.356,3.064,3.691l13.537,32.873c-0.534,0.669-0.828,1.5-0.831,2.356
		c0,2.077,1.682,3.76,3.758,3.76c1.168-0.003,2.266-0.546,2.977-1.474l31.887,7.271c0.25,1.866,1.839,3.26,3.721,3.26
		c1.188,0,2.307-0.567,3.015-1.523l23.118,6.423c0.625,1.31,1.943,2.144,3.391,2.148c2.076,0,3.758-1.682,3.758-3.759
		c0-0.128-0.006-0.252-0.023-0.379l10.32-9.031c0.53,0.273,1.118,0.418,1.716,0.418c1.218,0,2.358-0.59,3.066-1.589l12.443,4.222
		c0.457,1.62,1.936,2.737,3.614,2.737c0.271-0.003,0.538-0.033,0.805-0.095l24.354,25.206c-0.039,0.219-0.061,0.436-0.062,0.655
		c0,2.075,1.683,3.758,3.757,3.758c0.26,0,0.521-0.025,0.775-0.084l11.693,10.167c-0.08,0.304-0.12,0.608-0.12,0.924
		c0,2.078,1.682,3.759,3.76,3.759c1.995-0.006,3.638-1.562,3.743-3.551l10.704-2.311c0.71,0.943,1.819,1.496,3.001,1.496
		c2.075,0,3.757-1.683,3.757-3.759s-1.682-3.758-3.757-3.758c-0.468,0-0.931,0.09-1.365,0.259l-6.579-13.886
		c0.406-0.614,0.627-1.335,0.627-2.072c0-0.275-0.031-0.544-0.092-0.81l4.237-6.354c0.373,0.12,0.761,0.179,1.157,0.179
		c1.246,0,2.413-0.62,3.113-1.654l13.549,1.015c0.582,1.402,1.95,2.316,3.469,2.32c2.076,0,3.757-1.682,3.757-3.759
		c0-0.111-0.005-0.225-0.016-0.33l7.607-12.069c0.854-0.14,1.635-0.576,2.207-1.221h7.15c0.592,1.381,1.949,2.274,3.449,2.278
		c2.077,0,3.76-1.682,3.76-3.754c0-1.067-0.454-2.082-1.248-2.793l13.011-19.65c1.902-0.215,3.338-1.821,3.338-3.73
		C273.293,167.011,272.122,165.511,270.456,165.091z M239.556,173.041l-19.814-26.193l32.774,16.387l-3.265,8.257L239.556,173.041z
		 M248.046,174.542l-2.521,6.385l-4.039-5.34L248.046,174.542z M255.046,164.503l9.197,4.601l-11.759,1.876L255.046,164.503z
		 M253.553,160.605l-34.964-17.482c0.006-0.077,0.01-0.154,0.013-0.228c0-0.08-0.007-0.16-0.009-0.236l43.149-2.768L253.553,160.605
		z M203.376,180.586l-25.623,15.538c-0.456-0.408-1.003-0.694-1.591-0.843l-5.086-46.324c0.279-0.037,0.559-0.107,0.822-0.207
		l32.139,29.583c-0.434,0.628-0.668,1.377-0.668,2.138C203.369,180.511,203.369,180.55,203.376,180.586z M156.756,166.732
		l11.508-17.518l4.956,45.122l-15.952-22.899c0.393-0.605,0.604-1.313,0.604-2.037C157.872,168.395,157.472,167.434,156.756,166.732
		z M78.523,127.122l27.528-28.375v-0.01l13.057,25.548c-0.621,0.688-0.961,1.579-0.961,2.503c0,0.835,0.277,1.645,0.791,2.307
		l-18.287,29.178c-0.074-0.004-0.147-0.004-0.22,0c-0.497,0-0.988,0.099-1.445,0.288l-20.56-26.606
		c0.598-0.682,0.93-1.562,0.93-2.47C79.357,128.625,79.064,127.79,78.523,127.122z M143.88,112.965l-19.598,10.917
		c-0.675-0.552-1.512-0.852-2.376-0.852c-0.09-0.003-0.181-0.003-0.267,0l-12.77-24.989h0.007v0.003L143.88,112.965z
		 M169.667,141.594c-0.368,0.09-0.72,0.238-1.048,0.435l-18.184-26.722c0.681-0.7,1.062-1.634,1.062-2.608
		c0-0.275-0.033-0.541-0.094-0.809l35.012-21.12L169.667,141.594z M149.808,109.563c-0.311-0.203-0.647-0.364-1.007-0.468
		l-5.675-16.504l42.551-4.669L149.808,109.563z M145.93,109.406c-0.417,0.229-0.787,0.537-1.091,0.905l-33.407-14.242l28.823-3.164
		L145.93,109.406z M121.378,130.507c0.174,0.027,0.35,0.041,0.527,0.041c0.297,0,0.593-0.041,0.881-0.111l28.123,37.012
		c-0.025,0.038-0.053,0.08-0.076,0.125l-46.777-6.537c-0.157-0.57-0.447-1.102-0.848-1.54L121.378,130.507z M125.076,128.795
		c0.38-0.598,0.584-1.292,0.588-2.002c-0.003-0.143-0.014-0.291-0.034-0.435l19.566-10.897v-0.004
		c0.694,0.638,1.602,0.995,2.543,0.998c0.023,0,0.046,0,0.066,0l19.07,28.029c-0.053,0.248-0.079,0.504-0.079,0.761
		c0,0.304,0.041,0.606,0.114,0.901l-12.812,19.5c-0.312,0.002-0.625,0.041-0.927,0.122L125.076,128.795z M173.96,146.821
		c0.006-0.013,0.013-0.027,0.019-0.041l36.934-2.463l-4.992,31.915L173.96,146.821z M174.079,143.946
		c-0.294-0.8-0.854-1.477-1.588-1.918l16.485-50.038l22.354,49.473L174.079,143.946z M191.722,91.22
		c0.019-0.011,0.041-0.023,0.061-0.034v-0.004l33.066,21.996l-9.913,25.962c-0.031,0-0.062,0-0.092,0
		c-0.464,0-0.924,0.087-1.355,0.254L191.722,91.22z M227.253,114.776l33.598,22.346l-43.187,2.77L227.253,114.776z M235.972,91.944
		c0.112,0.013,0.229,0.019,0.348,0.026c0.297-0.003,0.593-0.04,0.88-0.11v-0.01l24.118,42.2l-33.032-21.974L235.972,91.944z
		 M233.455,90.632l-7.577,19.845l-32.28-21.473c0-0.012,0.006-0.018,0.006-0.024l38.992-0.28
		C232.693,89.415,232.99,90.081,233.455,90.632z M184.711,58.135l45.792,27.762l-37.141,0.267c-0.64-1.261-1.933-2.052-3.347-2.052
		c-0.137,0.004-0.277,0.009-0.418,0.027l-5.699-25.152C184.211,58.749,184.486,58.461,184.711,58.135z M133.701,58.632l44.302-1.652
		v0.003c0.4,1.471,1.656,2.553,3.172,2.736l5.661,24.962l-53.162-25.836C133.688,58.774,133.694,58.702,133.701,58.632z
		 M182.042,85.486l-39.857,4.375l-9.806-28.513L182.042,85.486z M139.314,90.175l-29.09,3.194c-0.03-0.07-0.063-0.144-0.101-0.21
		l19.712-30.542L139.314,90.175z M126.591,60.01c0.211,0.424,0.501,0.801,0.848,1.118l-19.495,30.208
		c-0.371-0.121-0.751-0.181-1.138-0.181c-1.405,0-2.69,0.785-3.333,2.03l-34.261-6.082c-0.04-0.189-0.093-0.377-0.16-0.561
		L126.591,60.01z M68.704,89.875v0.007l34.511,6.121c0.114,0.387,0.293,0.747,0.521,1.075l-27.802,28.657
		c-0.11-0.014-0.221-0.024-0.335-0.027c-0.236,0-0.473,0.027-0.707,0.074c-0.208-1.075-0.4-2.093-0.681-3.515
		c-0.822-4.124-1.91-9.495-3-14.822c-1.426-6.962-2.601-12.643-3.418-16.581C68.154,90.589,68.464,90.255,68.704,89.875z
		 M61.128,161.173l12.702-27.739l6.916,46.395l-18.22-13.801c0.257-0.518,0.39-1.084,0.39-1.662
		C62.917,163.061,62.24,161.854,61.128,161.173z M58.235,160.729c-0.614,0.156-1.178,0.463-1.643,0.897l-21.862-10.8
		c-0.003-0.128-0.016-0.253-0.036-0.378l37.24-19.648L58.235,160.729z M46.867,107.805L64.212,91.38
		c0.274,0.103,0.561,0.176,0.854,0.21c0.82,3.971,1.982,9.592,3.384,16.42c1.088,5.327,2.181,10.694,2.998,14.809
		c0.233,1.175,0.38,1.953,0.561,2.89l-27.602-13.661c-0.073-0.411-0.214-0.807-0.414-1.167L46.867,107.805z M40.736,116.455
		c1.205-0.013,2.329-0.601,3.03-1.581l26.995,13.363l-37.458,19.761c-0.357-0.284-0.765-0.497-1.199-0.637L40.736,116.455z
		 M46.529,186.118c-0.077,0.005-0.153,0.012-0.227,0.025l-13.211-32.093c0.234-0.162,0.454-0.353,0.648-0.562v-0.004l21.671,10.702
		c-0.003,0.06-0.007,0.121-0.011,0.18c0.004,0.897,0.328,1.763,0.908,2.443L46.529,186.118z M82.315,196.692l-31.841-7.264
		c-0.107-0.922-0.553-1.775-1.255-2.387l9.592-18.936c0.114,0.016,0.234,0.025,0.347,0.026c0.407,0,0.815-0.07,1.202-0.197v-0.012
		l20.98,15.891l1.802,12.066C82.826,196.104,82.549,196.382,82.315,196.692z M89.05,198.434c-0.22-1.656-1.509-2.968-3.161-3.217
		l-1.338-8.966l22.802,17.271L89.05,198.434z M112.02,203.513L83.96,182.264l-7.119-47.759l20.126,26.046
		c-0.194,0.466-0.294,0.964-0.294,1.469c0,1.85,1.356,3.426,3.185,3.709l12.967,37.084
		C112.523,203.006,112.253,203.244,112.02,203.513z M117.216,203.052c-0.464-0.374-1.005-0.634-1.585-0.758l-12.036-34.414
		l23.276,25.304c0,0.014,0,0.021-0.003,0.036c0.003,0.412,0.07,0.819,0.204,1.205L117.216,203.052z M131.938,189.7
		c-0.421-0.152-0.865-0.234-1.311-0.24c-0.912,0.006-1.796,0.342-2.48,0.942l-24.434-26.559c0.002,0,0.002,0,0.01,0l-0.004-0.01
		l46.337,6.477L131.938,189.7z M147.905,195.324c-0.601,0.338-1.091,0.833-1.428,1.426l-12.142-4.116
		c-0.054-0.354-0.163-0.701-0.321-1.03l17.561-18.79L147.905,195.324z M150.816,194.988l3.556-21.841
		c0.201-0.011,0.396-0.042,0.588-0.09l16.729,24.007l-18.28,0.681C153.103,196.425,152.111,195.373,150.816,194.988z
		 M152.904,200.629c0.008-0.014,0.02-0.033,0.026-0.051l18.691-0.69c0.388,1.46,1.609,2.544,3.104,2.759l1.438,22.057
		L152.904,200.629z M178.965,224.377l-1.4-21.552l19.841,15.487c-0.049,0.245-0.076,0.492-0.076,0.748
		c0,0.085,0.007,0.179,0.01,0.267l-15.938,6.285C180.775,224.907,179.905,224.467,178.965,224.377z M194.045,239.185
		c-0.457,0.08-0.896,0.248-1.295,0.495l-9.232-8.031l9.495,1.73c0.15,0.973,0.677,1.852,1.466,2.441L194.045,239.185z
		 M193.671,230.634l-11.336-2.061c0.011-0.104,0.022-0.208,0.022-0.309l16.231-6.401c0.142,0.125,0.289,0.237,0.445,0.339
		l-2.574,6.862C195.343,229.145,194.322,229.719,193.671,230.634z M197.532,240.404c-0.212-0.244-0.452-0.457-0.719-0.639
		l0.415-3.231c0.957-0.13,1.828-0.624,2.43-1.372v-0.005l8.182,3.021L197.532,240.404z M207.734,235.137l-7.271-2.688
		c-0.1-0.978-0.569-1.881-1.317-2.512l2.699-7.2c0.003,0,0.01,0,0.013,0v-0.006L207.734,235.137z M206.388,208.319
		c0.004,0.605,0.151,1.208,0.433,1.746l-3.838,5.753c-0.574-0.335-1.229-0.517-1.896-0.517c-0.754,0-1.495,0.226-2.116,0.656
		l-20.189-15.757c0.153-0.409,0.228-0.841,0.231-1.273c0-0.088-0.006-0.176-0.014-0.266l25.532-15.477
		c0.441,0.419,0.977,0.728,1.56,0.896l1.922,21.153C206.997,205.936,206.392,207.089,206.388,208.319z M213.441,146.38
		c0.447,0.18,0.923,0.271,1.402,0.274c0.366-0.003,0.734-0.06,1.088-0.166l20.474,27.058l-26.647,4.251
		c-0.32-0.318-0.695-0.577-1.111-0.758L213.441,146.38z M226.793,208.606l-12.95-0.963c-0.287-1.547-1.507-2.756-3.057-3.021
		l-1.896-20.833c0.033-0.021,0.066-0.041,0.099-0.062v0.003l18.274,24.03C227.068,208.022,226.913,208.305,226.793,208.606z
		 M232.421,206.912c-0.63-0.436-1.377-0.669-2.144-0.669c-0.196,0-0.395,0.013-0.591,0.047l-18.119-23.83l25.697,11.681
		c0.075,1.087,0.614,2.083,1.479,2.742L232.421,206.912z M241.846,190.23c-0.273-0.061-0.551-0.096-0.833-0.096
		c-1.096,0-2.137,0.481-2.852,1.317l-24.965-11.348l25.132-4.014l5.979,7.903L241.846,190.23z M250.929,193.562h-6.174
		c-0.053-0.586-0.24-1.148-0.548-1.644l2.092-5.292l4.865,6.429C251.073,193.217,250.998,193.387,250.929,193.562z M254.201,191.149
		c-0.283,0.02-0.56,0.073-0.832,0.153l-5.857-7.742l3.769-9.534l15.738-2.51v-0.005c0.038,0.04,0.076,0.074,0.112,0.107
		L254.201,191.149z M266.229,166.942l-10.144-5.067l7.947-20.11l3.631,23.709C267.057,165.822,266.564,166.329,266.229,166.942z"/>
</g>
<g id="Layer_2">
	<g>
		<path fill="#FF5354" d="M194.834,243.667c-0.13,0-0.257-0.051-0.352-0.145l-45.908-45.409l-18.106-5.057l-14.795,13.645
			c-0.123,0.114-0.294,0.156-0.456,0.119l-68.833-16.5c-0.158-0.038-0.288-0.15-0.348-0.302l-15.833-39.834
			c-0.039-0.099-0.046-0.207-0.019-0.31l9.667-37.333c0.021-0.084,0.065-0.161,0.125-0.223l24.5-25.167
			c0.043-0.044,0.093-0.08,0.148-0.105l64.5-29.833c0.06-0.028,0.125-0.043,0.191-0.046l51.833-2c0.099-0.003,0.19,0.02,0.273,0.068
			l54.666,32.167c0.074,0.044,0.136,0.106,0.179,0.18l28.834,49.667c0.031,0.054,0.052,0.113,0.062,0.175l4.833,31.334
			c0.018,0.114-0.005,0.231-0.064,0.331l-15.333,25.833c-0.101,0.17-0.291,0.262-0.485,0.242l-13.188-1.466l-10.166,16.234
			c-0.098,0.156-0.268,0.254-0.456,0.233l-20.081-1.316l-8.122,9.714l10.344,19.704c0.07,0.134,0.076,0.293,0.016,0.433
			c-0.061,0.139-0.181,0.242-0.327,0.282l-17.166,4.667C194.922,243.661,194.878,243.667,194.834,243.667z M130.333,192
			c0.045,0,0.09,0.006,0.134,0.019l18.5,5.167c0.082,0.022,0.157,0.066,0.217,0.126l45.795,45.298l16.287-4.429l-10.21-19.448
			c-0.095-0.18-0.071-0.397,0.059-0.553l8.5-10.166c0.103-0.122,0.243-0.189,0.417-0.179l20.035,1.313l10.175-16.247
			c0.102-0.162,0.291-0.249,0.479-0.231l13.179,1.465l15.077-25.401l-4.791-31.064l-28.721-49.472L181.04,56.172l-51.587,1.99
			L65.127,87.915l-24.343,25.006l-9.592,37.046l15.677,39.441l68.322,16.377l14.804-13.652C130.088,192.046,130.209,192,130.333,192
			z"/>
	</g>
	<g>
		<path fill="#FF5354" d="M174.833,199.167c-0.155,0-0.307-0.072-0.404-0.205l-21.5-29.5l-32.328-42.995
			c-0.023-0.03-0.042-0.063-0.058-0.098l-13.833-31.333c-0.065-0.148-0.055-0.319,0.028-0.458l22.167-37.167
			c0.134-0.224,0.419-0.307,0.653-0.191l58.699,29.35l-7.574-30.783l0.971-0.239l7.833,31.833c0.047,0.189-0.021,0.389-0.173,0.51
			c-0.153,0.122-0.36,0.143-0.536,0.057l-59.251-29.626l-21.797,36.546l13.706,31.044l32.298,42.954l21.24,29.144l32.513-18.743
			c0.135-0.076,0.295-0.087,0.439-0.029l32.932,13.467l-0.379,0.926l-32.705-13.374l-32.689,18.845
			C175.004,199.146,174.918,199.167,174.833,199.167z"/>
	</g>
	<g>
		<path fill="#FF5354" d="M211.111,239.147l-14.809-6.354c-0.243-0.104-0.363-0.381-0.273-0.63l4.635-12.821l-21.995,8.133
			c-0.145,0.052-0.303,0.038-0.433-0.041s-0.218-0.213-0.237-0.363l-3.662-28.339l-4.502-53.856
			c-0.006-0.066,0.002-0.133,0.022-0.196l18.667-57.333c0.049-0.148,0.163-0.265,0.31-0.317c0.148-0.052,0.309-0.032,0.44,0.054
			l75.336,49.429c0.203,0.133,0.281,0.394,0.185,0.617l-24.272,55.991l-0.918-0.398l24.105-55.604l-74.438-48.839l-18.433,56.616
			l4.491,53.732l3.579,27.694l22.416-8.288c0.183-0.068,0.388-0.023,0.526,0.114c0.138,0.137,0.184,0.342,0.118,0.524l-4.84,13.39
			l14.375,6.168L211.111,239.147z"/>
	</g>
	<g>
		<path fill="#FF5354" d="M195.328,243.243l-0.988-0.152l1.6-10.402l-17.586-5.203l0.283-0.959l18.005,5.327
			c0.24,0.071,0.391,0.309,0.353,0.556L195.328,243.243z"/>
	</g>
	<g>
		<path fill="#FF5354" d="M115.037,206.736L58.044,164.65l-27.606-14.206c-0.169-0.087-0.274-0.263-0.271-0.453
			s0.115-0.362,0.287-0.443l43.748-20.626l32.602-34.432l0.727,0.688l-32.667,34.5c-0.043,0.045-0.094,0.082-0.15,0.108
			L31.797,150.02l26.773,13.784l57.06,42.128L115.037,206.736z"/>
	</g>
	<g>
		<path fill="#FF5354" d="M46.954,190.044l-0.907-0.42l27.794-60.056l-33.726-16.452l0.438-0.898l34.167,16.667
			c0.245,0.119,0.349,0.412,0.234,0.659L46.954,190.044z"/>
	</g>
	<g>
		
			<rect x="44.546" y="163.5" transform="matrix(0.1451 0.9894 -0.9894 0.1451 230.302 61.4654)" fill="#FF5354" width="70.074" height="1"/>
	</g>
	<g>
		<path fill="#FF5354" d="M229.935,209.968l-23.001-30.5l-36.52-33.877l-16.671,23.862c-0.107,0.153-0.286,0.233-0.479,0.209
			l-53.333-7.334c-0.128-0.018-0.245-0.084-0.325-0.187l-25.5-32.5c-0.045-0.058-0.077-0.125-0.094-0.196l-9.667-41.833
			c-0.038-0.164,0.009-0.334,0.124-0.457c0.115-0.122,0.281-0.179,0.449-0.149l42.333,7.333c0.039,0.007,0.077,0.018,0.114,0.034
			l40.667,17.667c0.085,0.037,0.158,0.097,0.211,0.173l22.334,32.097l93.716-7.88l0.084,0.996l-92.875,7.81l36.17,33.564
			l23.061,30.565L229.935,209.968z M100.269,161.365l52.83,7.265l16.625-23.797l-22.22-31.931l-40.482-17.586L65.49,88.121
			l9.472,40.991L100.269,161.365z"/>
	</g>
	<g>
		<path fill="#FF5354" d="M253.769,194.969l-15.302-20.167l-30.645,5.391c-0.163,0.026-0.321-0.022-0.438-0.136
			c-0.115-0.113-0.169-0.274-0.144-0.435l6.072-38.466L188.546,87.71c-0.071-0.156-0.059-0.337,0.033-0.481
			C188.672,87.086,188.83,87,189,87c0.001,0,0.002,0,0.004,0l46.833,0.333c0.166,0.001,0.32,0.085,0.413,0.224
			c0.092,0.138,0.108,0.313,0.045,0.467l-21.918,53.047l0.387,0.835l24.131,31.804l30.519-5.369l0.174,0.984l-30.013,5.28
			l14.991,19.759L253.769,194.969z M214.087,142.669l-5.748,36.417l29.448-5.181L214.087,142.669z M189.785,88.005l24.02,51.832
			l21.283-51.509L189.785,88.005z"/>
	</g>
	<g>
		
			<rect x="194.506" y="193.518" transform="matrix(0.0788 0.9969 -0.9969 0.0788 385.8128 -29.4974)" fill="#FF5354" width="28.723" height="0.999"/>
	</g>
	<g>
		<path fill="#FF5354" d="M148.727,197.589l-0.984-0.178l4.812-26.742l-21.865,22.182c-0.094,0.096-0.222,0.149-0.355,0.149h0
			c-0.133,0-0.262-0.054-0.355-0.148l-30.333-30.667c-0.16-0.161-0.19-0.41-0.075-0.605l21-35.667
			c0.046-0.079,0.114-0.144,0.195-0.187l26.784-14.296L128.38,58.648l0.939-0.342l19.317,53.189
			c0.085,0.234-0.015,0.495-0.234,0.612l-27.042,14.434l-20.733,35.213l29.707,30.033l22.644-22.972
			c0.154-0.156,0.391-0.193,0.587-0.094c0.194,0.102,0.301,0.317,0.262,0.533L148.727,197.589z"/>
	</g>
	<g>
		<path fill="#FF5354" d="M148.421,112.097l-0.51-0.86l38.932-23.041l-79.633,7.136l-0.089-0.996l81.833-7.333
			c0.245-0.03,0.449,0.122,0.521,0.345c0.072,0.222-0.02,0.465-0.221,0.583L148.421,112.097z"/>
	</g>
</g>
<g id="Layer_3">
	<circle fill="#FF5354" cx="40.333" cy="112.667" r="2.833"/>
	<circle fill="#FF5354" cx="30.667" cy="150" r="2.833"/>
	<circle fill="#FF5354" cx="46.667" cy="189.25" r="2.833"/>
	<circle fill="#FF5354" cx="84.666" cy="198.666" r="2.833"/>
	<circle fill="#FF5354" cx="74.5" cy="129.333" r="2.833"/>
	<circle fill="#FF5354" cx="58.25" cy="164" r="2.833"/>
	<circle fill="#FF5354" cx="114.75" cy="206.334" r="2.833"/>
	<circle fill="#FF5354" cx="130.5" cy="192.083" r="2.833"/>
	<circle fill="#FF5354" cx="148.083" cy="197.499" r="2.833"/>
	<circle fill="#FF5354" cx="153.333" cy="169.124" r="2.833"/>
	<circle fill="#FF5354" cx="174.833" cy="198.667" r="2.833"/>
	<circle fill="#FF5354" cx="178.495" cy="227.005" r="2.833"/>
	<circle fill="#FF5354" cx="194.87" cy="243.167" r="2.833"/>
	<circle fill="#FF5354" cx="196.5" cy="232.253" r="2.833"/>
	<circle fill="#FF5354" cx="211.701" cy="238.687" r="2.833"/>
	<circle fill="#FF5354" cx="201.451" cy="218.687" r="2.833"/>
	<circle fill="#FF5354" cx="210" cy="208.333" r="2.833"/>
	<circle fill="#FF5354" cx="229.96" cy="209.666" r="2.833"/>
	<circle fill="#FF5354" cx="240.667" cy="193" r="2.833"/>
	<circle fill="#FF5354" cx="254.042" cy="194.666" r="2.833"/>
	<circle fill="#FF5354" cx="269.5" cy="169.124" r="2.833"/>
	<circle fill="#FF5354" cx="264.336" cy="137.124" r="2.833"/>
	<circle fill="#FF5354" cx="249.086" cy="171.957" r="2.833"/>
	<circle fill="#FF5354" cx="244.711" cy="181.957" r="2.833"/>
	<circle fill="#FF5354" cx="239.045" cy="173.957" r="2.833"/>
	<circle fill="#FF5354" cx="207.735" cy="179.699" r="2.833"/>
	<circle fill="#FF5354" cx="213.985" cy="141.083" r="2.833"/>
	<circle fill="#FF5354" cx="225.878" cy="111.666" r="2.833"/>
	<circle fill="#FF5354" cx="235.626" cy="87.5" r="2.833"/>
	<circle fill="#FF5354" cx="189" cy="87.5" r="2.833"/>
	<circle fill="#FF5354" cx="181" cy="55.666" r="2.833"/>
	<circle fill="#FF5354" cx="129.5" cy="57.666" r="2.833"/>
	<circle fill="#FF5354" cx="141.125" cy="92" r="2.833"/>
	<circle fill="#FF5354" cx="148.083" cy="111.666" r="2.833"/>
	<circle fill="#FF5354" cx="170.333" cy="145.166" r="2.833"/>
	<circle fill="#FF5354" cx="121.083" cy="125.916" r="2.833"/>
	<circle fill="#FF5354" cx="107.167" cy="94.833" r="2.833"/>
	<circle fill="#FF5354" cx="64.833" cy="87.5" r="2.833"/>
	<circle fill="#FF5354" cx="100" cy="161.807" r="2.833"/>
	<circle fill="#FF5354" cx="82.416" cy="181.957" r="2.833"/>
</g>
</svg>
