<?xml version="1.0" encoding="utf-8"?>
<!-- Generator: Adobe Illustrator 16.0.3, SVG Export Plug-In . SVG Version: 6.00 Build 0)  -->
<!DOCTYPE svg PUBLIC "-//W3C//DTD SVG 1.1//EN" "http://www.w3.org/Graphics/SVG/1.1/DTD/svg11.dtd">
<svg version="1.1" id="Layer_1" xmlns="http://www.w3.org/2000/svg" xmlns:xlink="http://www.w3.org/1999/xlink" x="0px" y="0px"
	 width="40px" height="40px" viewBox="0 0 40 40" enable-background="new 0 0 40 40" xml:space="preserve">
<path fill="#B7B7B7" d="M34.33,8.887H6.473c-1.763,0-3.197,1.433-3.197,3.194v17.618c0,1.762,1.434,3.195,3.197,3.195H34.33
	c1.762,0,3.196-1.434,3.196-3.195V12.081C37.526,10.319,36.092,8.887,34.33,8.887z M14.997,20.891L4.883,30.329
	c-0.084-0.207-0.127-0.418-0.127-0.63V12.081c0-0.212,0.042-0.423,0.127-0.629L14.997,20.891z M21.694,22.706
	c-0.339,0.315-0.798,0.489-1.293,0.489c-0.496,0-0.955-0.174-1.293-0.489L5.968,10.441c0.162-0.051,0.332-0.076,0.505-0.076H34.33
	c0.173,0,0.342,0.025,0.504,0.076L21.694,22.706z M16.08,21.902l2.021,1.886c0.616,0.573,1.433,0.889,2.3,0.889
	c0.865,0,1.683-0.315,2.302-0.889l2.019-1.886l10.112,9.438c-0.163,0.051-0.332,0.076-0.504,0.076H6.473
	c-0.172,0-0.342-0.025-0.505-0.076L16.08,21.902z M25.807,20.891l10.113-9.438c0.084,0.206,0.127,0.417,0.127,0.629v17.618
	c0,0.213-0.043,0.425-0.127,0.63L25.807,20.891z"/>
</svg>
