<?xml version="1.0" encoding="utf-8"?>
<!-- Generator: Adobe Illustrator 16.0.3, SVG Export Plug-In . SVG Version: 6.00 Build 0)  -->
<!DOCTYPE svg PUBLIC "-//W3C//DTD SVG 1.1//EN" "http://www.w3.org/Graphics/SVG/1.1/DTD/svg11.dtd">
<svg version="1.1" id="Layer_1" xmlns="http://www.w3.org/2000/svg" xmlns:xlink="http://www.w3.org/1999/xlink" x="0px" y="0px"
	 width="60px" height="60px" viewBox="0 0 60 60" enable-background="new 0 0 60 60" xml:space="preserve">
<g>
	<path fill="#B7B7B7" d="M57.396,54.705c-1.701-1.702-3.401-3.401-5.103-5.1l-6.341-6.335c0.093-0.096,0.188-0.191,0.282-0.287
		c0.323-0.327,0.657-0.666,0.952-1.042c3.443-4.431,5.268-9.949,5.133-15.538c-0.134-5.597-2.245-11.043-5.945-15.333
		c-0.353-0.412-0.745-0.834-1.167-1.258c-3.994-3.981-9.312-6.47-14.972-7.009c-5.419-0.522-11.138,0.93-15.688,3.972
		c-4.784,3.203-8.293,8.008-9.883,13.532c-1.522,5.29-1.167,11.041,0.999,16.191c2.184,5.185,6.333,9.625,11.384,12.183
		c4.867,2.465,10.693,3.21,16.102,2.071c4.112-0.869,7.976-2.868,11.192-5.789l4.321,4.315c1.543,1.545,3.087,3.088,4.631,4.629
		l2.457,2.455c0.217,0.214,0.508,0.333,0.821,0.333c0.312,0,0.616-0.125,0.831-0.343C57.848,55.905,57.845,55.15,57.396,54.705z
		 M45.495,40.328l-0.222,0.282c-0.222,0.279-0.454,0.553-0.688,0.823c-0.445,0.507-0.934,1.015-1.449,1.506
		c-0.492,0.468-1.02,0.925-1.568,1.361l-0.076,0.062l-0.198,0.154c-0.13,0.096-0.261,0.193-0.397,0.288
		c-0.285,0.206-0.578,0.405-0.872,0.6c-1.099,0.717-2.285,1.348-3.51,1.866l-0.323,0.129c-0.146,0.06-0.294,0.114-0.443,0.17
		c-0.32,0.122-0.644,0.23-0.966,0.336c-0.595,0.189-1.215,0.357-1.897,0.517c-0.586,0.136-1.217,0.251-1.884,0.351
		c-0.01,0-0.062,0.004-0.123,0.012h-0.001l-0.299,0.038l-0.001-0.002c-0.13,0.015-0.261,0.028-0.399,0.038
		c-0.336,0.035-0.671,0.056-1.01,0.072c-1.289,0.066-2.586,0.02-3.904-0.141c-0.073-0.007-0.144-0.015-0.228-0.028l-0.09-0.013
		c-0.156-0.021-0.307-0.046-0.461-0.071c-0.335-0.054-0.667-0.117-1-0.189c-0.622-0.13-1.244-0.291-1.902-0.49
		c-0.609-0.185-1.235-0.404-1.859-0.654l-0.176-0.074l-0.134-0.056c-0.145-0.062-0.289-0.125-0.435-0.192
		c-0.315-0.146-0.626-0.296-0.933-0.453c-0.573-0.292-1.161-0.627-1.745-0.996c-0.274-0.173-0.544-0.35-0.811-0.535
		c-0.133-0.094-0.267-0.187-0.402-0.285c-0.062-0.044-0.125-0.089-0.198-0.146l-0.077-0.059c-0.042-0.03-0.075-0.055-0.103-0.075
		c-1.063-0.818-2.08-1.76-3.021-2.799c-0.221-0.246-0.439-0.498-0.65-0.753c-0.105-0.126-0.208-0.251-0.333-0.408l-0.046-0.062
		c-0.059-0.072-0.115-0.148-0.195-0.257c-0.396-0.529-0.78-1.096-1.14-1.681c-0.342-0.552-0.67-1.141-0.974-1.752
		c-0.144-0.286-0.279-0.572-0.412-0.869c-0.055-0.119-0.108-0.241-0.175-0.4c-0.019-0.05-0.042-0.106-0.072-0.176L7.598,35.09
		c-0.468-1.195-0.84-2.466-1.108-3.773c-0.062-0.309-0.116-0.617-0.167-0.927c-0.025-0.147-0.045-0.297-0.07-0.483l-0.021-0.163
		c-0.008-0.066-0.017-0.132-0.024-0.207c-0.07-0.616-0.115-1.27-0.133-1.945c-0.073-2.649,0.272-4.982,1.121-7.566
		c0.098-0.3,0.206-0.595,0.316-0.889l0.256-0.646c0.009-0.019,0.017-0.038,0.025-0.055l0.053-0.125
		c0.252-0.584,0.546-1.186,0.875-1.789c0.307-0.566,0.649-1.131,1.042-1.727c0.178-0.27,0.366-0.54,0.565-0.81
		c0.043-0.064,0.089-0.125,0.144-0.197l0.081-0.104l0.001,0c0,0,0-0.001,0.001-0.001c0.108-0.145,0.221-0.283,0.334-0.422
		c0.847-1.053,1.823-2.059,2.9-2.988c0.971-0.836,2.02-1.578,3.208-2.27c0.552-0.323,1.146-0.636,1.771-0.928
		c0.144-0.067,0.289-0.135,0.439-0.201l0.291-0.127v0c0.317-0.131,0.637-0.257,0.96-0.373c1.187-0.435,2.463-0.777,3.792-1.017
		c0.308-0.055,0.618-0.101,0.928-0.144c0.02-0.002,0.039-0.005,0.056-0.009l0.261-0.028c0.163-0.02,0.328-0.035,0.54-0.055
		c0.66-0.056,1.316-0.084,1.952-0.084h0.126c0.576,0,1.189,0.027,1.824,0.081c0.312,0.025,0.623,0.059,0.956,0.1l0.206,0.026v0
		l0.095,0.014c0.179,0.024,0.354,0.054,0.537,0.088c1.07,0.183,2.172,0.458,3.273,0.819c0.483,0.159,0.992,0.35,1.556,0.583v0
		l0.032,0.014c0.064,0.026,0.13,0.053,0.202,0.087c0.145,0.062,0.289,0.13,0.435,0.198c0.266,0.122,0.526,0.249,0.788,0.384
		c0.987,0.501,1.981,1.11,2.954,1.81l0.543,0.414c0.239,0.186,0.474,0.379,0.702,0.574c0.436,0.37,0.878,0.777,1.349,1.244
		c0.529,0.535,0.989,1.039,1.406,1.543c0.419,0.496,0.72,0.893,1.147,1.517c0.743,1.075,1.405,2.251,1.972,3.494
		c0.047,0.104,0.091,0.206,0.136,0.309l0.019,0.043c0.014,0.029,0.025,0.059,0.038,0.088l0.122,0.297
		c0.129,0.321,0.245,0.641,0.357,0.962c0.209,0.597,0.398,1.231,0.564,1.888c0.152,0.591,0.283,1.217,0.398,1.914
		c0.024,0.156,0.048,0.313,0.069,0.458l0.02,0.139c0.001,0.057,0.012,0.116,0.023,0.181c0.039,0.338,0.07,0.675,0.097,1.013
		c0.095,1.259,0.079,2.57-0.048,3.899l-0.104,0.886c-0.043,0.303-0.095,0.604-0.149,0.902c-0.117,0.617-0.267,1.261-0.446,1.913
		c-0.168,0.611-0.373,1.241-0.61,1.873c-0.241,0.646-0.397,1.011-0.725,1.69c-0.571,1.189-1.267,2.353-2.064,3.459
		C45.688,40.073,45.593,40.198,45.495,40.328L45.495,40.328z"/>
	<path fill="#B7B7B7" d="M38.424,35.35H37.64V25.118c0-0.64-0.52-1.166-1.169-1.172c-0.633,0-1.168,0.531-1.168,1.16V35.35h-2.431
		v-6.107c0-0.646-0.521-1.172-1.17-1.172c-0.633,0-1.167,0.531-1.167,1.16v6.12h-2.43v-7.112c0-0.641-0.52-1.167-1.17-1.173
		c-0.632,0-1.167,0.531-1.167,1.16v7.125h-2.431v-3.143c0-0.646-0.521-1.173-1.17-1.173c-0.632,0-1.167,0.531-1.167,1.16v3.155
		h-2.327v-7.171c1.454-1.01,2.907-2.017,4.361-3.024l2.25-1.559c0.116-0.083,0.231-0.162,0.358-0.249l4.292,0.822l0.078,0.008
		c0.047,0,0.086-0.008,0.117-0.017l0.056,0.003c0.115,0,0.21-0.025,0.324-0.056c0.124-0.03,0.257-0.071,0.324-0.136l0.161-0.048
		l0.066-0.072c0.76-0.82,1.52-1.642,2.278-2.465l0.651-0.706v0.068c0,0.646,0.521,1.172,1.169,1.172c0.633,0,1.167-0.531,1.167-1.16
		v-3.062c0.01-0.326-0.109-0.627-0.332-0.848c-0.186-0.187-0.425-0.253-0.635-0.286l-0.104-0.058l-3.054,0.027
		c-0.643,0.006-1.17,0.527-1.175,1.162c-0.002,0.305,0.124,0.608,0.346,0.831c0.221,0.222,0.509,0.344,0.823,0.344l0.284-0.002
		l-2.678,2.9l-4.118-0.778l0.001-0.004c-0.324-0.094-0.663-0.05-0.917,0.128c-1.434,0.997-2.867,1.989-4.3,2.981l-1.795,1.243
		v-7.922c0-0.641-0.52-1.167-1.169-1.173c-0.633,0-1.167,0.533-1.167,1.164v19.108c0,0.635,0.532,1.172,1.163,1.172h20.912
		c0.646,0,1.172-0.52,1.175-1.156c0.003-0.309-0.122-0.611-0.343-0.835C39.022,35.473,38.73,35.35,38.424,35.35z"/>
</g>
</svg>
