<?xml version="1.0" encoding="utf-8"?>
<!-- Generator: Adobe Illustrator 16.0.3, SVG Export Plug-In . SVG Version: 6.00 Build 0)  -->
<!DOCTYPE svg PUBLIC "-//W3C//DTD SVG 1.1//EN" "http://www.w3.org/Graphics/SVG/1.1/DTD/svg11.dtd">
<svg version="1.1" id="Layer_1" xmlns="http://www.w3.org/2000/svg" xmlns:xlink="http://www.w3.org/1999/xlink" x="0px" y="0px"
	 width="60px" height="60px" viewBox="0 0 60 60" enable-background="new 0 0 60 60" xml:space="preserve">
<g>
	<path fill="#B7B7B7" d="M56.722,37.175h-2.196V7.98h2.196c0.659,0,1.194-0.536,1.194-1.195c0-0.659-0.535-1.194-1.194-1.194H5.111
		c-0.659,0-1.194,0.535-1.194,1.194c0,0.659,0.536,1.195,1.194,1.195h2.197v29.194H5.111c-0.659,0-1.194,0.536-1.194,1.195
		c0,0.66,0.536,1.196,1.194,1.196h24.611v6.099l-6.606,6.708c-0.461,0.472-0.454,1.231,0.015,1.69
		c0.452,0.447,1.24,0.443,1.69-0.015l4.9-4.977v4.139c0,0.659,0.536,1.195,1.195,1.195c0.66,0,1.195-0.536,1.195-1.195v-4.139
		l4.9,4.977c0.228,0.23,0.53,0.357,0.852,0.357c0.317,0,0.615-0.122,0.838-0.342c0.47-0.46,0.477-1.22,0.016-1.692l-6.605-6.707
		v-6.099h24.61c0.659,0,1.194-0.536,1.194-1.196C57.916,37.711,57.381,37.175,56.722,37.175z M52.135,7.98v29.194H9.698V7.98H52.135
		z"/>
	<path fill="#B7B7B7" d="M18.146,17.213c0,0.32,0.125,0.62,0.351,0.843c0.447,0.458,1.243,0.455,1.689,0.001l0.727-0.724
		l0.722,0.722c0.223,0.228,0.524,0.354,0.846,0.354c0.319,0,0.62-0.125,0.844-0.352c0.226-0.225,0.351-0.524,0.351-0.844
		c0-0.319-0.125-0.62-0.351-0.844l-0.725-0.727l0.725-0.723c0.226-0.224,0.35-0.523,0.351-0.842c0-0.32-0.124-0.622-0.351-0.848
		c-0.453-0.453-1.24-0.452-1.689,0l-0.723,0.724l-0.726-0.724c-0.451-0.452-1.239-0.451-1.688,0
		c-0.227,0.227-0.353,0.528-0.352,0.848c0,0.319,0.126,0.618,0.352,0.842l0.723,0.723l-0.723,0.726
		C18.272,16.593,18.146,16.894,18.146,17.213z"/>
	<path fill="#B7B7B7" d="M44.521,26.687l0.728-0.723c0.463-0.466,0.463-1.224-0.002-1.692c-0.453-0.45-1.24-0.45-1.691,0
		l-0.723,0.726l-0.727-0.726c-0.45-0.451-1.236-0.451-1.688,0c-0.227,0.227-0.352,0.527-0.352,0.847
		c0,0.319,0.125,0.619,0.352,0.844l0.723,0.723l-0.723,0.725c-0.227,0.225-0.352,0.525-0.352,0.844c0,0.32,0.125,0.62,0.352,0.845
		c0.452,0.452,1.236,0.45,1.688,0l0.727-0.723l0.723,0.723c0.226,0.226,0.525,0.35,0.847,0.35c0.315,0,0.616-0.124,0.846-0.35
		c0.466-0.465,0.466-1.223,0-1.688L44.521,26.687z"/>
	<path fill="#B7B7B7" d="M16.603,35.195c1.972,0,3.577-1.605,3.577-3.58c0-1.512-0.953-2.846-2.383-3.355v-3.81
		c0-0.704,0.573-1.276,1.276-1.276h4.026c0.704,0,1.276,0.572,1.276,1.276c0,2.021,1.645,3.665,3.666,3.665h4.705
		c2.021,0,3.666-1.644,3.666-3.665v-3.082c0-0.703,0.572-1.275,1.275-1.275h5.639c2.021,0,3.665-1.644,3.665-3.664v-1.45
		c0.463,0.396,1.2,0.369,1.627-0.06c0.465-0.464,0.465-1.223,0-1.689l-1.979-1.978c-0.45-0.452-1.238-0.452-1.688,0l-1.98,1.978
		c-0.465,0.467-0.465,1.225,0,1.689c0.434,0.434,1.171,0.456,1.629,0.06v1.45c0,0.703-0.572,1.274-1.273,1.274h-5.639
		c-2.021,0-3.664,1.644-3.664,3.665v3.082c0,0.702-0.573,1.272-1.277,1.272h-4.705c-0.704,0-1.276-0.571-1.276-1.272
		c0-2.021-1.644-3.666-3.666-3.666h-4.026c-2.021,0-3.666,1.644-3.666,3.666v3.81c-1.429,0.509-2.382,1.843-2.382,3.355
		C13.025,33.59,14.63,35.195,16.603,35.195z M16.603,32.806c-0.655,0-1.188-0.534-1.188-1.19c0-0.652,0.533-1.184,1.188-1.184
		s1.188,0.531,1.188,1.184C17.79,32.271,17.257,32.806,16.603,32.806z"/>
</g>
</svg>
