<?xml version="1.0" encoding="utf-8"?>
<!-- Generator: Adobe Illustrator 16.0.3, SVG Export Plug-In . SVG Version: 6.00 Build 0)  -->
<!DOCTYPE svg PUBLIC "-//W3C//DTD SVG 1.1//EN" "http://www.w3.org/Graphics/SVG/1.1/DTD/svg11.dtd">
<svg version="1.1" id="Layer_1" xmlns="http://www.w3.org/2000/svg" xmlns:xlink="http://www.w3.org/1999/xlink" x="0px" y="0px"
	 width="60px" height="60px" viewBox="0 0 60 60" enable-background="new 0 0 60 60" xml:space="preserve">
<g transform="translate(0,-952.36218)">
	<path fill="#B7B7B7" d="M30,955.362c-14.897,0-27,12.103-27,27c0,14.896,12.103,27,27,27c14.896,0,27-12.104,27-27
		C57,967.465,44.896,955.362,30,955.362z M30,957.817c13.569,0,24.545,10.975,24.545,24.545c0,13.569-10.976,24.545-24.545,24.545
		c-13.57,0-24.545-10.976-24.545-24.545C5.455,968.792,16.43,957.817,30,957.817z M29.866,959.639
		c-0.633,0.069-1.107,0.61-1.094,1.247v0.682c-0.009,0.678,0.533,1.235,1.21,1.246c0.678,0.009,1.235-0.533,1.244-1.211
		c0-0.012,0-0.023,0-0.035v-0.682c0.016-0.678-0.522-1.239-1.199-1.253C29.973,959.63,29.919,959.633,29.866,959.639z
		 M29.866,968.23c-0.633,0.069-1.107,0.61-1.094,1.246v12.886c0.003,0.324,0.134,0.635,0.365,0.863l8.591,8.592
		c0.473,0.485,1.249,0.495,1.735,0.024c0.485-0.474,0.497-1.252,0.024-1.738c-0.012-0.01-0.023-0.021-0.033-0.031l-8.229-8.228
		v-12.368c0.016-0.678-0.522-1.239-1.199-1.253C29.973,968.221,29.919,968.224,29.866,968.23z M8.408,981.135
		c-0.678,0.032-1.202,0.608-1.17,1.286c0.031,0.678,0.607,1.2,1.285,1.168h0.682c0.678,0.011,1.235-0.532,1.246-1.209
		c0.009-0.678-0.533-1.235-1.211-1.245c-0.012,0-0.023,0-0.035,0H8.523C8.484,981.133,8.446,981.133,8.408,981.135z M50.681,981.135
		c-0.68,0.032-1.201,0.608-1.17,1.286c0.031,0.678,0.606,1.2,1.285,1.168h0.682c0.677,0.011,1.234-0.532,1.244-1.209
		c0.01-0.678-0.531-1.235-1.209-1.245c-0.014,0-0.023,0-0.035,0h-0.682C50.757,981.133,50.719,981.133,50.681,981.135z
		 M29.866,1001.91c-0.633,0.071-1.107,0.611-1.094,1.248v0.682c-0.009,0.677,0.533,1.234,1.21,1.244
		c0.678,0.01,1.235-0.531,1.244-1.209c0-0.014,0-0.023,0-0.035v-0.682c0.016-0.679-0.522-1.239-1.199-1.254
		C29.973,1001.904,29.919,1001.905,29.866,1001.91z"/>
</g>
</svg>
