<?xml version="1.0" encoding="utf-8"?>
<!-- Generator: Adobe Illustrator 16.0.3, SVG Export Plug-In . SVG Version: 6.00 Build 0)  -->
<!DOCTYPE svg PUBLIC "-//W3C//DTD SVG 1.1//EN" "http://www.w3.org/Graphics/SVG/1.1/DTD/svg11.dtd">
<svg version="1.1" id="Layer_1" xmlns="http://www.w3.org/2000/svg" xmlns:xlink="http://www.w3.org/1999/xlink" x="0px" y="0px"
	 width="60px" height="60px" viewBox="0 0 60 60" enable-background="new 0 0 60 60" xml:space="preserve">
<g>
	<path fill="#B7B7B7" d="M25.622,37.254c1.342,0,2.432-1.09,2.432-2.427c0-1.338-1.09-2.431-2.432-2.431
		c-1.34,0-2.428,1.093-2.428,2.431C23.194,36.164,24.282,37.254,25.622,37.254z"/>
	<path fill="#B7B7B7" d="M14.959,48.698h31.552c0.354,0,0.643-0.29,0.643-0.645V28.047c0-0.354-0.288-0.644-0.643-0.644H14.959
		c-0.354,0-0.643,0.289-0.643,0.644v20.007C14.316,48.408,14.604,48.698,14.959,48.698z M22.87,46.639l3.062-3.06l3.06,3.06H22.87z
		 M31.873,46.639l-2.99-3.017l3.704-3.705l6.697,6.722H31.873z M16.371,29.457h28.725v17.182h-2.913l-9.111-9.123
		c-0.123-0.12-0.286-0.188-0.458-0.188c-0.17,0-0.332,0.068-0.454,0.188l-4.688,4.686l-1.044-1.041
		c-0.252-0.25-0.658-0.25-0.91-0.002l-5.553,5.48h-3.594V29.457z"/>
	<path fill="#B7B7B7" d="M14.959,20.712h26.21c0.354,0,0.644-0.289,0.644-0.644v-0.902c0-0.355-0.289-0.643-0.644-0.643h-26.21
		c-0.354,0-0.643,0.287-0.643,0.643v0.902C14.316,20.423,14.604,20.712,14.959,20.712z"/>
	<path fill="#B7B7B7" d="M55.092,5.483H6.379c-0.354,0-0.644,0.288-0.644,0.643v48.322c0,0.354,0.289,0.643,0.644,0.643h48.713
		c0.354,0,0.644-0.288,0.644-0.643V6.126C55.735,5.771,55.446,5.483,55.092,5.483z M53.652,53.008H7.831V13.503h45.821V53.008z
		 M53.652,11.426H7.831V7.564h45.821V11.426z"/>
</g>
</svg>
