<?xml version="1.0" encoding="utf-8"?>
<!-- Generator: Adobe Illustrator 16.0.3, SVG Export Plug-In . SVG Version: 6.00 Build 0)  -->
<!DOCTYPE svg PUBLIC "-//W3C//DTD SVG 1.1//EN" "http://www.w3.org/Graphics/SVG/1.1/DTD/svg11.dtd">
<svg version="1.1" id="Layer_1" xmlns="http://www.w3.org/2000/svg" xmlns:xlink="http://www.w3.org/1999/xlink" x="0px" y="0px"
	 width="100px" height="100px" viewBox="0 0 100 100" enable-background="new 0 0 100 100" xml:space="preserve">
<g>
	<path fill="#FF5354" d="M28.909,42.314c-0.42-0.508-1.172-0.58-1.681-0.161l-10.668,8.81c0.014-0.074,0.043-0.145,0.043-0.22
		c0.104-18.089,14.905-32.807,32.996-32.807c9.843,0.004,19.097,4.347,25.392,11.914c0.42,0.507,1.177,0.575,1.682,0.155
		c0.507-0.422,0.576-1.174,0.154-1.681c-6.748-8.115-16.673-12.771-27.228-12.775c-19.154,0-34.84,15.392-35.342,34.458
		l-8.372-9.302c-0.44-0.49-1.194-0.527-1.687-0.088c-0.49,0.441-0.529,1.196-0.088,1.687l10.612,11.791
		c0.235,0.261,0.561,0.395,0.887,0.395c0.269,0,0.539-0.089,0.76-0.273l12.378-10.22C29.257,43.575,29.329,42.823,28.909,42.314z"/>
	<path fill="#FF5354" d="M95.865,51.188L84.857,39.694c-0.456-0.474-1.2-0.492-1.679-0.046L71.45,50.608
		c-0.481,0.45-0.507,1.206-0.056,1.688c0.447,0.481,1.206,0.509,1.688,0.056l9.82-9.178c0.003,0.054-0.013,0.106-0.002,0.161
		c0.362,1.961,0.547,3.974,0.547,5.983c0,18.193-14.807,32.993-33.008,32.993c-12.718,0-24.085-7.104-29.665-18.542
		c-0.29-0.592-1.004-0.84-1.597-0.55c-0.593,0.289-0.838,1.003-0.549,1.597c5.982,12.266,18.171,19.883,31.81,19.883
		c19.518,0,35.396-15.871,35.396-35.381c0-1.896-0.178-3.789-0.479-5.651l8.784,9.173c0.235,0.244,0.549,0.367,0.862,0.367
		c0.297,0,0.594-0.11,0.827-0.331C96.304,52.42,96.321,51.663,95.865,51.188z"/>
</g>
</svg>
