<?xml version="1.0" encoding="utf-8"?>
<!-- Generator: Adobe Illustrator 16.0.3, SVG Export Plug-In . SVG Version: 6.00 Build 0)  -->
<!DOCTYPE svg PUBLIC "-//W3C//DTD SVG 1.1//EN" "http://www.w3.org/Graphics/SVG/1.1/DTD/svg11.dtd">
<svg version="1.1" xmlns="http://www.w3.org/2000/svg" xmlns:xlink="http://www.w3.org/1999/xlink" x="0px" y="0px" width="300px"
	 height="300px" viewBox="0 0 300 300" enable-background="new 0 0 300 300" xml:space="preserve">
<g id="Layer_1">
	<g id="Layer_1_1_" display="none">
		<path display="inline" fill="#FF5354" d="M270.456,165.091l-3.726-24.325c1.153-0.673,1.862-1.91,1.862-3.244
			c0-2.076-1.682-3.757-3.759-3.757c-0.141,0.003-0.279,0.013-0.421,0.033l-24.915-43.603c0.375-0.601,0.574-1.288,0.577-1.991
			c0-2.077-1.683-3.759-3.757-3.759c-0.674,0.003-1.33,0.184-1.907,0.524l-49.118-29.778c-0.379-1.723-1.902-2.95-3.666-2.958
			c-1.354,0.004-2.605,0.734-3.27,1.915l-45.6,1.699c-0.711-0.804-1.729-1.261-2.804-1.264c-1.542,0-2.931,0.948-3.491,2.382
			L66.976,84.398c-0.455-0.19-0.948-0.287-1.442-0.287c-2.009,0.004-3.657,1.585-3.748,3.594l-16.918,18.109l-3.388,3.205
			c-0.253-0.054-0.514-0.081-0.771-0.081c-2.076,0-3.758,1.682-3.758,3.759c0,1.021,0.417,1.995,1.155,2.703l-9.025,32.308
			c-1.151,0.672-1.862,1.903-1.862,3.238c0,1.808,1.289,3.355,3.064,3.69L43.82,187.51c-0.534,0.67-0.828,1.5-0.831,2.356
			c0,2.077,1.682,3.76,3.758,3.76c1.168-0.003,2.266-0.546,2.977-1.474l31.887,7.271c0.25,1.866,1.839,3.261,3.721,3.261
			c1.188,0,2.307-0.567,3.015-1.523l23.118,6.423c0.625,1.31,1.943,2.144,3.391,2.147c2.076,0,3.758-1.682,3.758-3.758
			c0-0.129-0.006-0.252-0.023-0.38l10.32-9.03c0.53,0.272,1.118,0.418,1.716,0.418c1.218,0,2.358-0.59,3.066-1.59l12.443,4.223
			c0.457,1.619,1.936,2.736,3.614,2.736c0.271-0.002,0.538-0.033,0.805-0.095l24.354,25.206c-0.039,0.219-0.062,0.436-0.062,0.655
			c0,2.075,1.682,3.758,3.756,3.758c0.26,0,0.521-0.024,0.775-0.084l11.693,10.167c-0.08,0.304-0.12,0.607-0.12,0.924
			c0,2.078,1.682,3.76,3.76,3.76c1.995-0.007,3.638-1.562,3.743-3.552l10.704-2.312c0.71,0.943,1.819,1.496,3.001,1.496
			c2.074,0,3.757-1.683,3.757-3.758c0-2.076-1.683-3.759-3.757-3.759c-0.469,0-0.932,0.091-1.365,0.259l-6.579-13.886
			c0.406-0.614,0.627-1.335,0.627-2.071c0-0.275-0.03-0.545-0.092-0.811l4.237-6.354c0.373,0.119,0.761,0.178,1.156,0.178
			c1.246,0,2.414-0.619,3.113-1.653l13.549,1.015c0.582,1.402,1.95,2.316,3.469,2.32c2.076,0,3.758-1.682,3.758-3.759
			c0-0.111-0.006-0.226-0.016-0.33l7.606-12.069c0.854-0.14,1.635-0.576,2.207-1.221h7.149c0.592,1.381,1.949,2.273,3.449,2.277
			c2.077,0,3.76-1.682,3.76-3.754c0-1.066-0.453-2.082-1.248-2.793l13.012-19.649c1.902-0.215,3.338-1.821,3.338-3.729
			C273.293,167.011,272.122,165.511,270.456,165.091z M239.557,173.041l-19.814-26.193l32.773,16.386l-3.265,8.258L239.557,173.041z
			 M248.046,174.542l-2.521,6.385l-4.039-5.34L248.046,174.542z M255.046,164.503l9.197,4.601l-11.759,1.877L255.046,164.503z
			 M253.553,160.605l-34.964-17.482c0.006-0.077,0.011-0.154,0.013-0.228c0-0.08-0.007-0.16-0.009-0.236l43.149-2.768
			L253.553,160.605z M203.376,180.586l-25.623,15.538c-0.456-0.408-1.003-0.694-1.591-0.843l-5.086-46.324
			c0.279-0.037,0.559-0.107,0.822-0.207l32.139,29.583c-0.434,0.628-0.668,1.377-0.668,2.138
			C203.369,180.511,203.369,180.55,203.376,180.586z M156.756,166.732l11.508-17.519l4.956,45.122l-15.952-22.898
			c0.394-0.605,0.604-1.313,0.604-2.037C157.872,168.395,157.473,167.434,156.756,166.732z M78.523,127.122l27.528-28.375v-0.01
			l13.057,25.548c-0.621,0.688-0.961,1.579-0.961,2.503c0,0.835,0.277,1.645,0.791,2.307l-18.287,29.179
			c-0.074-0.004-0.147-0.004-0.22,0c-0.497,0-0.988,0.099-1.445,0.287l-20.56-26.605c0.598-0.682,0.93-1.562,0.93-2.47
			C79.357,128.625,79.064,127.79,78.523,127.122z M143.88,112.965l-19.598,10.917c-0.675-0.552-1.512-0.852-2.376-0.852
			c-0.09-0.003-0.181-0.003-0.267,0l-12.77-24.989h0.007v0.003L143.88,112.965z M169.667,141.594
			c-0.368,0.09-0.72,0.238-1.048,0.435l-18.184-26.722c0.681-0.7,1.062-1.634,1.062-2.608c0-0.275-0.033-0.541-0.095-0.809
			l35.013-21.12L169.667,141.594z M149.808,109.563c-0.311-0.203-0.647-0.364-1.007-0.468l-5.675-16.504l42.551-4.669
			L149.808,109.563z M145.93,109.406c-0.417,0.229-0.787,0.537-1.091,0.905l-33.407-14.242l28.823-3.164L145.93,109.406z
			 M121.378,130.507c0.174,0.027,0.35,0.041,0.527,0.041c0.297,0,0.593-0.041,0.881-0.111l28.123,37.012
			c-0.025,0.037-0.054,0.08-0.076,0.125l-46.777-6.537c-0.157-0.57-0.447-1.102-0.848-1.54L121.378,130.507z M125.076,128.795
			c0.38-0.598,0.584-1.292,0.588-2.002c-0.003-0.143-0.014-0.291-0.034-0.435l19.566-10.897v-0.004
			c0.694,0.638,1.602,0.995,2.543,0.998c0.023,0,0.046,0,0.066,0l19.07,28.029c-0.053,0.248-0.079,0.504-0.079,0.761
			c0,0.304,0.041,0.606,0.114,0.901l-12.812,19.5c-0.312,0.002-0.625,0.041-0.927,0.121L125.076,128.795z M173.96,146.821
			c0.006-0.013,0.013-0.027,0.019-0.041l36.935-2.463l-4.992,31.916L173.96,146.821z M174.079,143.946
			c-0.294-0.8-0.854-1.477-1.588-1.918l16.485-50.038l22.354,49.473L174.079,143.946z M191.723,91.22
			c0.019-0.011,0.041-0.022,0.061-0.034v-0.004l33.066,21.996l-9.914,25.962c-0.031,0-0.062,0-0.092,0
			c-0.464,0-0.924,0.087-1.354,0.254L191.723,91.22z M227.253,114.776l33.599,22.346l-43.188,2.77L227.253,114.776z M235.973,91.944
			c0.111,0.013,0.229,0.019,0.348,0.026c0.297-0.003,0.593-0.04,0.88-0.11v-0.01l24.118,42.2l-33.032-21.974L235.973,91.944z
			 M233.455,90.632l-7.577,19.845l-32.28-21.473c0-0.012,0.006-0.018,0.006-0.024l38.992-0.28
			C232.693,89.415,232.99,90.081,233.455,90.632z M184.711,58.135l45.792,27.762l-37.142,0.267
			c-0.639-1.261-1.932-2.052-3.346-2.052c-0.138,0.004-0.277,0.009-0.418,0.027l-5.699-25.152
			C184.211,58.749,184.486,58.461,184.711,58.135z M133.701,58.632l44.302-1.652v0.003c0.399,1.471,1.656,2.553,3.172,2.736
			l5.661,24.962l-53.162-25.836C133.688,58.774,133.694,58.702,133.701,58.632z M182.042,85.486l-39.857,4.375l-9.806-28.513
			L182.042,85.486z M139.314,90.175l-29.09,3.194c-0.03-0.07-0.063-0.144-0.101-0.21l19.712-30.542L139.314,90.175z M126.591,60.01
			c0.211,0.424,0.501,0.801,0.848,1.118l-19.495,30.208c-0.371-0.121-0.751-0.181-1.138-0.181c-1.405,0-2.69,0.785-3.333,2.03
			l-34.261-6.082c-0.04-0.189-0.093-0.377-0.16-0.561L126.591,60.01z M68.704,89.875v0.007l34.511,6.121
			c0.114,0.387,0.293,0.747,0.521,1.075l-27.802,28.657c-0.11-0.014-0.221-0.024-0.335-0.027c-0.236,0-0.473,0.027-0.707,0.074
			c-0.208-1.075-0.4-2.093-0.681-3.515c-0.822-4.124-1.91-9.495-3-14.822c-1.426-6.962-2.601-12.643-3.418-16.581
			C68.154,90.589,68.464,90.255,68.704,89.875z M61.128,161.173l12.702-27.739l6.916,46.395l-18.22-13.802
			c0.257-0.518,0.39-1.084,0.39-1.661C62.917,163.061,62.24,161.854,61.128,161.173z M58.235,160.729
			c-0.614,0.156-1.178,0.463-1.643,0.897l-21.862-10.8c-0.003-0.128-0.016-0.253-0.036-0.378l37.24-19.648L58.235,160.729z
			 M46.867,107.805L64.212,91.38c0.274,0.103,0.561,0.176,0.854,0.21c0.82,3.971,1.982,9.592,3.384,16.42
			c1.088,5.327,2.181,10.694,2.998,14.809c0.233,1.175,0.38,1.953,0.561,2.89l-27.602-13.661c-0.073-0.411-0.214-0.807-0.414-1.167
			L46.867,107.805z M40.736,116.455c1.205-0.013,2.329-0.601,3.03-1.581l26.995,13.363l-37.458,19.761
			c-0.357-0.284-0.765-0.497-1.199-0.637L40.736,116.455z M46.529,186.118c-0.077,0.005-0.153,0.012-0.227,0.024L33.091,154.05
			c0.234-0.161,0.454-0.353,0.648-0.562v-0.004l21.671,10.701c-0.003,0.061-0.007,0.121-0.011,0.181
			c0.004,0.897,0.328,1.763,0.908,2.442L46.529,186.118z M82.315,196.691l-31.841-7.264c-0.107-0.922-0.553-1.775-1.255-2.387
			l9.592-18.936c0.114,0.016,0.234,0.024,0.347,0.025c0.407,0,0.815-0.07,1.202-0.197v-0.012l20.98,15.891l1.802,12.066
			C82.826,196.104,82.549,196.382,82.315,196.691z M89.05,198.434c-0.22-1.656-1.509-2.968-3.161-3.217l-1.338-8.966l22.802,17.271
			L89.05,198.434z M112.02,203.514l-28.06-21.25l-7.119-47.759l20.126,26.046c-0.194,0.467-0.294,0.965-0.294,1.469
			c0,1.851,1.356,3.426,3.185,3.709l12.967,37.084C112.523,203.006,112.253,203.244,112.02,203.514z M117.216,203.052
			c-0.464-0.374-1.005-0.634-1.585-0.758l-12.036-34.414l23.276,25.304c0,0.015,0,0.021-0.003,0.037
			c0.003,0.411,0.07,0.818,0.204,1.204L117.216,203.052z M131.938,189.7c-0.421-0.152-0.865-0.234-1.311-0.24
			c-0.912,0.006-1.796,0.342-2.48,0.942l-24.434-26.56c0.002,0,0.002,0,0.01,0l-0.004-0.01l46.337,6.478L131.938,189.7z
			 M147.905,195.324c-0.601,0.338-1.091,0.833-1.428,1.426l-12.142-4.116c-0.054-0.354-0.163-0.7-0.321-1.03l17.561-18.789
			L147.905,195.324z M150.816,194.988l3.556-21.842c0.201-0.011,0.396-0.041,0.588-0.09l16.729,24.008l-18.28,0.681
			C153.104,196.425,152.111,195.373,150.816,194.988z M152.904,200.629c0.008-0.014,0.02-0.033,0.025-0.051l18.691-0.689
			c0.388,1.459,1.609,2.543,3.104,2.758l1.438,22.058L152.904,200.629z M178.965,224.377l-1.4-21.552l19.842,15.487
			c-0.049,0.244-0.076,0.492-0.076,0.748c0,0.084,0.007,0.179,0.01,0.267l-15.938,6.284
			C180.775,224.907,179.904,224.467,178.965,224.377z M194.045,239.186c-0.457,0.08-0.896,0.248-1.295,0.494l-9.232-8.031
			l9.496,1.73c0.149,0.973,0.676,1.852,1.465,2.441L194.045,239.186z M193.671,230.634l-11.336-2.061
			c0.011-0.104,0.022-0.208,0.022-0.31l16.23-6.4c0.143,0.125,0.289,0.236,0.445,0.339l-2.574,6.862
			C195.343,229.145,194.322,229.719,193.671,230.634z M197.532,240.404c-0.212-0.244-0.452-0.457-0.72-0.639l0.416-3.231
			c0.957-0.13,1.828-0.624,2.43-1.372v-0.005l8.182,3.021L197.532,240.404z M207.734,235.137l-7.271-2.688
			c-0.1-0.979-0.568-1.881-1.316-2.512l2.699-7.201c0.002,0,0.01,0,0.012,0v-0.006L207.734,235.137z M206.389,208.318
			c0.004,0.605,0.15,1.209,0.432,1.746l-3.838,5.754c-0.573-0.336-1.229-0.518-1.896-0.518c-0.754,0-1.495,0.227-2.116,0.656
			L178.782,200.2c0.153-0.409,0.228-0.841,0.231-1.273c0-0.088-0.007-0.176-0.015-0.266l25.532-15.478
			c0.441,0.42,0.977,0.729,1.56,0.896l1.923,21.152C206.997,205.936,206.393,207.089,206.389,208.318z M213.441,146.38
			c0.447,0.18,0.923,0.271,1.401,0.274c0.366-0.003,0.734-0.06,1.089-0.166l20.473,27.058l-26.646,4.251
			c-0.32-0.318-0.695-0.576-1.111-0.758L213.441,146.38z M226.793,208.605l-12.95-0.963c-0.286-1.547-1.507-2.756-3.057-3.021
			l-1.896-20.833c0.032-0.021,0.065-0.041,0.099-0.062v0.004l18.274,24.029C227.068,208.021,226.913,208.305,226.793,208.605z
			 M232.421,206.912c-0.63-0.436-1.377-0.669-2.144-0.669c-0.196,0-0.396,0.013-0.592,0.047l-18.119-23.83l25.697,11.681
			c0.075,1.088,0.614,2.084,1.479,2.742L232.421,206.912z M241.846,190.23c-0.272-0.062-0.551-0.097-0.832-0.097
			c-1.097,0-2.138,0.481-2.853,1.317l-24.966-11.348l25.133-4.015l5.979,7.903L241.846,190.23z M250.93,193.562h-6.175
			c-0.053-0.586-0.239-1.148-0.548-1.645l2.092-5.292l4.865,6.429C251.073,193.217,250.998,193.387,250.93,193.562z
			 M254.201,191.148c-0.283,0.021-0.561,0.074-0.832,0.153l-5.857-7.741l3.77-9.535l15.738-2.51v-0.005
			c0.037,0.04,0.076,0.074,0.111,0.107L254.201,191.148z M266.229,166.941l-10.144-5.066l7.947-20.11l3.631,23.709
			C267.057,165.822,266.564,166.329,266.229,166.941z"/>
	</g>
	<circle fill="#FF5354" cx="111.07" cy="132.153" r="3.14"/>
	<circle fill="#FF5354" cx="160.34" cy="149.259" r="3.14"/>
	<circle fill="#FF5354" cx="160.34" cy="194.841" r="3.14"/>
	<circle fill="#FF5354" cx="185.128" cy="159.912" r="3.14"/>
	<circle fill="#FF5354" cx="195.474" cy="164.214" r="3.141"/>
	<circle fill="#FF5354" cx="245.562" cy="185.675" r="3.14"/>
	<circle fill="#FF5354" cx="284.628" cy="75.821" r="3.14"/>
</g>
<g id="Layer_2_1_">
	<g>
		<path fill="#FF5354" d="M284.987,74.975c-0.044,0-0.087,0.004-0.127,0.013l-0.041,0l-0.014,0.015l-173.951,56.762
			c-0.237,0.076-0.397,0.295-0.399,0.544c-0.002,0.247,0.153,0.469,0.388,0.553l48.793,17.027v45.141l0.006,0.086
			c0.006,0.034,0.014,0.065,0.027,0.107c0.012,0.028,0.022,0.056,0.055,0.11c0.014,0.021,0.027,0.041,0.036,0.051l0.034,0.041
			c0.022,0.023,0.047,0.046,0.075,0.067c0.037,0.029,0.075,0.049,0.121,0.067l0.115,0.035c0.041,0.009,0.076,0.014,0.109,0.014
			h0.003h0.003c0.027-0.001,0.056-0.005,0.107-0.013c0.03-0.006,0.058-0.014,0.097-0.027c0.024-0.011,0.049-0.022,0.09-0.046
			c0.027-0.017,0.055-0.036,0.081-0.059l34.946-30.661l49.933,21.75c0.148,0.062,0.308,0.064,0.459,0
			c0.149-0.063,0.266-0.188,0.316-0.338L285.51,75.8c0.037-0.079,0.057-0.162,0.057-0.248
			C285.566,75.244,285.315,74.985,284.987,74.975z M160.151,148.846l-47.31-16.512l167.329-54.602L160.151,148.846z M160.795,149.81
			l118.511-70.219l-94.364,79.671l-0.041,0.036c-0.008,0.006-0.016,0.014-0.022,0.021l-0.074,0.001v0.094l-24.009,33.803V149.81z
			 M163.55,191.335l21.951-30.904l8.87,3.864L163.55,191.335z M245.367,185.245l-58.981-25.691l97.337-82.177L245.367,185.245z"/>
		<path fill="#FF5354" d="M15.858,163.94c-0.1-0.294-0.435-0.463-0.734-0.361c-0.301,0.104-0.463,0.433-0.36,0.735
			c0.027,0.078,2.747,7.976,8.963,17.949c0.105,0.168,0.293,0.271,0.491,0.271c0.105,0,0.211-0.03,0.307-0.088
			c0.131-0.082,0.222-0.211,0.257-0.361c0.035-0.149,0.009-0.304-0.073-0.436C18.564,171.795,15.885,164.018,15.858,163.94z"/>
		<path fill="#FF5354" d="M36.683,197.406c-0.208-0.225-0.592-0.241-0.819-0.031c-0.231,0.218-0.246,0.585-0.031,0.818
			c4.658,5.033,9.735,9.451,15.089,13.132c0.097,0.066,0.21,0.101,0.328,0.101c0.19,0,0.369-0.094,0.477-0.251
			c0.088-0.127,0.121-0.28,0.093-0.432c-0.028-0.152-0.114-0.284-0.242-0.371C46.291,206.738,41.279,202.375,36.683,197.406z"/>
		<path fill="#FF5354" d="M152.32,201.345c-0.027,0.025-3.009,2.74-8.091,6.19c-0.129,0.087-0.216,0.219-0.244,0.37
			c-0.029,0.152,0.003,0.306,0.09,0.433c0.106,0.158,0.286,0.254,0.479,0.254c0.113,0,0.225-0.033,0.324-0.099
			c5.192-3.523,8.197-6.27,8.227-6.297c0.234-0.216,0.25-0.583,0.034-0.816C152.932,201.15,152.548,201.136,152.32,201.345z"/>
		<path fill="#FF5354" d="M126.868,217.031c-6.254,2.666-12.613,4.595-18.898,5.731c-0.152,0.028-0.285,0.113-0.373,0.24
			c-0.088,0.127-0.121,0.28-0.094,0.434c0.05,0.274,0.289,0.475,0.569,0.475c0.034,0,0.067-0.003,0.104-0.009
			c6.374-1.154,12.815-3.108,19.145-5.807c0.142-0.06,0.252-0.172,0.31-0.314c0.059-0.144,0.058-0.301-0.003-0.443
			C127.505,217.051,127.156,216.909,126.868,217.031z"/>
		<path fill="#FF5354" d="M88.292,223.747c-4.768-0.4-9.539-1.289-14.178-2.644c-1.691-0.492-3.388-1.051-5.042-1.658
			c-0.292-0.107-0.637,0.053-0.742,0.343c-0.053,0.145-0.047,0.302,0.018,0.442s0.181,0.247,0.325,0.3
			c1.692,0.621,3.414,1.188,5.118,1.686c4.715,1.375,9.562,2.277,14.404,2.684c0.016,0.002,0.032,0.003,0.049,0.003
			c0.298,0,0.551-0.232,0.576-0.529c0.014-0.153-0.034-0.303-0.134-0.422C88.587,223.833,88.447,223.761,88.292,223.747z"/>
	</g>
</g>
</svg>
