<?xml version="1.0" encoding="utf-8"?>
<!-- Generator: Adobe Illustrator 16.0.3, SVG Export Plug-In . SVG Version: 6.00 Build 0)  -->
<!DOCTYPE svg PUBLIC "-//W3C//DTD SVG 1.1//EN" "http://www.w3.org/Graphics/SVG/1.1/DTD/svg11.dtd">
<svg version="1.1" id="Layer_1" xmlns="http://www.w3.org/2000/svg" xmlns:xlink="http://www.w3.org/1999/xlink" x="0px" y="0px"
	 width="40px" height="40px" viewBox="0 0 40 40" enable-background="new 0 0 40 40" xml:space="preserve">
<path fill="#B7B7B7" d="M10.024,35.725c-2.794,0-5.067-2.264-5.082-5.059l0.012-0.157l1.743-12.197l-1.022,0.098
	c-0.093,0.008-0.188,0.021-0.276,0.021c-0.655,0-1.201-0.216-1.614-0.632c-0.444-0.443-0.695-1.104-0.692-1.809l0.012-2.648
	c0.005-1.458,2.13-4.915,7.016-6.304c4.253-1.215,6.754-1.312,8.763-1.312l1.478,0.004c2.239,0.005,4.773,0.016,9.465,1.396
	c4.872,1.433,6.968,4.906,6.96,6.364l-0.012,2.647c-0.004,1.166-0.727,2.42-2.305,2.42c-0.056,0-0.114-0.005-0.174-0.009
	l-1.095-0.098l1.735,12.244c-0.029,2.779-2.298,5.031-5.082,5.031H10.024z M19.95,12.111c-1.564,0-4.146,0.261-5.023,0.504
	l-0.481,0.137l-0.096,0.491c-0.049,0.256-0.052,0.616-0.052,0.925l0.002,0.342c0.024,1.055-0.189,2.174-1.933,2.57
	c-0.911,0.198-2.257,0.504-3.563,0.774l-0.554,0.114L6.431,30.694l0.002,0.075c0.069,1.941,1.646,3.466,3.592,3.466h19.832
	c1.945,0,3.524-1.524,3.59-3.466l0.002-0.075l-1.801-12.61l-0.547-0.119c-1.344-0.291-2.75-0.619-3.59-0.818
	c-1.754-0.408-1.959-1.53-1.93-2.578l0.008-0.346c0.002-0.319,0.002-0.674-0.05-0.938l-0.091-0.491l-0.476-0.133
	c-0.878-0.256-3.507-0.544-5.02-0.55H19.95z M19.899,10.626c1.29,0.009,4.874,0.277,5.956,0.776
	c1.092,0.505,1.232,1.655,1.221,2.827l-0.002,0.137c0,0.088-0.001,0.167-0.003,0.243c-0.003,0.074-0.008,0.174-0.008,0.261v0.621
	l0.631,0.167c0.039,0.009,0.083,0.025,0.131,0.034l0.189,0.047c1.576,0.363,4.854,1.126,6.226,1.314
	c0.083,0.008,0.156,0.013,0.227,0.013h0.629l0.152-0.609c0.027-0.108,0.043-0.219,0.043-0.327l0.014-2.679l-0.016-0.081
	c-0.009-0.033-0.889-3.357-5.881-4.824c-4.49-1.321-6.806-1.326-9.046-1.329L18.889,7.21c-1.999,0-4.291,0.096-8.357,1.257
	c-4.995,1.419-5.914,4.73-5.919,4.763l-0.02,0.082L4.583,16c0,0.12,0.016,0.238,0.045,0.349L4.79,16.94h0.616
	c0.071,0,0.146-0.004,0.224-0.019c1.466-0.182,5.172-1.021,6.39-1.293c0.088-0.021,0.166-0.038,0.22-0.058l0.568-0.169l0.011-0.591
	c0.001-0.09,0-0.192-0.003-0.275c-0.003-0.071-0.005-0.145-0.004-0.224v-0.145c0-1.173,0.153-2.322,1.244-2.817
	C15.164,10.851,18.728,10.626,19.899,10.626z"/>
<g>
	<path fill="#B7B7B7" d="M19.94,19.177c-0.751,0-1.363,0.612-1.363,1.366c0,0.748,0.612,1.359,1.363,1.359
		c0.75,0,1.363-0.611,1.363-1.359C21.303,19.789,20.69,19.177,19.94,19.177z"/>
	<path fill="#B7B7B7" d="M24.146,21.902c0.754,0,1.363-0.611,1.363-1.359c0-0.754-0.609-1.366-1.363-1.366
		c-0.75,0-1.362,0.612-1.362,1.366C22.784,21.291,23.396,21.902,24.146,21.902z"/>
	<path fill="#B7B7B7" d="M15.733,19.177c-0.754,0-1.363,0.612-1.363,1.366c0,0.748,0.609,1.359,1.363,1.359
		c0.75,0,1.363-0.611,1.363-1.359C17.096,19.789,16.483,19.177,15.733,19.177z"/>
	<path fill="#B7B7B7" d="M19.94,23.593c-0.751,0-1.363,0.612-1.363,1.36c0,0.754,0.612,1.365,1.363,1.365
		c0.75,0,1.363-0.611,1.363-1.365C21.303,24.205,20.69,23.593,19.94,23.593z"/>
	<path fill="#B7B7B7" d="M24.146,23.593c-0.75,0-1.362,0.612-1.362,1.36c0,0.754,0.612,1.365,1.362,1.365
		c0.754,0,1.363-0.611,1.363-1.365C25.51,24.205,24.9,23.593,24.146,23.593z"/>
	<path fill="#B7B7B7" d="M15.733,23.593c-0.754,0-1.363,0.612-1.363,1.36c0,0.754,0.609,1.365,1.363,1.365
		c0.75,0,1.363-0.611,1.363-1.365C17.096,24.205,16.483,23.593,15.733,23.593z"/>
	<circle fill="#B7B7B7" cx="19.94" cy="29.368" r="1.366"/>
	<circle fill="#B7B7B7" cx="24.146" cy="29.368" r="1.366"/>
	<circle fill="#B7B7B7" cx="15.733" cy="29.368" r="1.366"/>
</g>
</svg>
