<?xml version="1.0" encoding="utf-8"?>
<!-- Generator: Adobe Illustrator 16.0.3, SVG Export Plug-In . SVG Version: 6.00 Build 0)  -->
<!DOCTYPE svg PUBLIC "-//W3C//DTD SVG 1.1//EN" "http://www.w3.org/Graphics/SVG/1.1/DTD/svg11.dtd">
<svg version="1.1" id="Layer_2" xmlns="http://www.w3.org/2000/svg" xmlns:xlink="http://www.w3.org/1999/xlink" x="0px" y="0px"
	 width="174px" height="42px" viewBox="0 0 174 42" enable-background="new 0 0 174 42" xml:space="preserve">
<polygon fill="#FF5354" points="34.201,26.145 37.411,14.34 29.861,4.335 17.003,0.108 15.847,4.551 5.699,9.679 4.27,16.055 
	0.1,20.154 0.1,21.2 3.495,19.359 4.506,32.001 10.395,32.001 11.369,25.861 18.123,25.174 20.543,32.001 25.238,32.001 
	27.469,18.65 31.599,17.272 33.257,29.618 37.061,29.618 37.263,28.695 34.158,26.307 "/>
<path fill="#FFFFFF" d="M42.026,25.324v-7.673c0-0.604,0.478-1.083,1.082-1.083h5.454c0.535,0,0.97,0.437,0.97,0.971
	c0,0.533-0.435,0.954-0.97,0.954h-4.385v1.998h3.752c0.534,0,0.97,0.435,0.97,0.969c0,0.535-0.436,0.956-0.97,0.956h-3.752v2.064
	h4.455c0.535,0,0.971,0.438,0.971,0.972c0,0.532-0.436,0.954-0.971,0.954h-5.523C42.504,26.406,42.026,25.932,42.026,25.324z"/>
<path fill="#FFFFFF" d="M53.191,17.567c0-0.604,0.479-1.083,1.082-1.083c0.604,0,1.083,0.479,1.083,1.083v6.875h4.006
	c0.548,0,0.983,0.437,0.983,0.983c0,0.548-0.435,0.981-0.983,0.981h-5.088c-0.604,0-1.082-0.477-1.082-1.082L53.191,17.567
	L53.191,17.567z"/>
<path fill="#FFFFFF" d="M63.46,25.324v-7.673c0-0.604,0.478-1.083,1.082-1.083h5.452c0.535,0,0.97,0.437,0.97,0.971
	c0,0.533-0.435,0.954-0.97,0.954H65.61v1.998h3.752c0.535,0,0.969,0.435,0.969,0.969c0,0.535-0.435,0.956-0.969,0.956H65.61v2.064
	h4.455c0.534,0,0.97,0.438,0.97,0.972c0,0.532-0.436,0.954-0.97,0.954h-5.522C63.938,26.406,63.46,25.932,63.46,25.324z"/>
<path fill="#FFFFFF" d="M74.625,17.651c0-0.604,0.478-1.083,1.081-1.083h2.938c2.347,0,3.768,1.392,3.768,3.401V20
	c0,2.275-1.771,3.456-3.978,3.456h-1.645v1.955c0,0.603-0.478,1.08-1.083,1.08c-0.603,0-1.081-0.478-1.081-1.08V17.651z
	 M78.504,21.531c1.083,0,1.715-0.647,1.715-1.491v-0.027c0-0.971-0.675-1.49-1.758-1.49h-1.672v3.008H78.504z"/>
<path fill="#FFFFFF" d="M85.714,17.567c0-0.604,0.478-1.083,1.083-1.083c0.604,0,1.082,0.479,1.082,1.083v2.895h3.991v-2.895
	c0-0.604,0.478-1.083,1.082-1.083s1.083,0.479,1.083,1.083v7.844c0,0.603-0.479,1.08-1.083,1.08s-1.082-0.478-1.082-1.08v-2.953
	h-3.991v2.953c0,0.603-0.478,1.08-1.082,1.08s-1.083-0.478-1.083-1.08V17.567z"/>
<path fill="#FFFFFF" d="M97.346,25.016l3.43-7.743c0.236-0.534,0.675-0.858,1.266-0.858h0.126c0.59,0,1.013,0.325,1.251,0.858
	l3.43,7.743c0.071,0.154,0.112,0.297,0.112,0.438c0,0.573-0.45,1.039-1.024,1.039c-0.508,0-0.845-0.298-1.039-0.744l-0.662-1.545
	h-4.328l-0.688,1.614c-0.184,0.422-0.549,0.675-0.999,0.675c-0.562,0-0.996-0.45-0.996-1.013
	C97.219,25.324,97.273,25.17,97.346,25.016z M103.43,22.291l-1.361-3.249l-1.362,3.249H103.43z"/>
<path fill="#FFFFFF" d="M110.156,17.596c0-0.606,0.478-1.083,1.082-1.083h0.225c0.521,0,0.83,0.252,1.125,0.632l4.174,5.48v-5.073
	c0-0.59,0.479-1.069,1.067-1.069c0.59,0,1.067,0.479,1.067,1.069v7.828c0,0.604-0.479,1.082-1.082,1.082h-0.068
	c-0.521,0-0.83-0.252-1.125-0.633l-4.328-5.676v5.271c0,0.59-0.479,1.066-1.068,1.066c-0.591,0-1.066-0.479-1.066-1.066
	L110.156,17.596L110.156,17.596z"/>
<path fill="#FFFFFF" d="M125.104,18.566h-2.08c-0.549,0-0.996-0.451-0.996-0.999c0-0.547,0.447-0.998,0.996-0.998h6.324
	c0.549,0,0.998,0.451,0.998,0.998c0,0.548-0.449,0.999-0.998,0.999h-2.08v6.845c0,0.603-0.477,1.08-1.082,1.08
	c-0.604,0-1.082-0.478-1.082-1.08V18.566L125.104,18.566z"/>
<path fill="#FF5354" d="M131.816,25.016l3.429-7.743c0.239-0.534,0.675-0.858,1.265-0.858h0.129c0.59,0,1.01,0.325,1.25,0.858
	l3.428,7.743c0.072,0.154,0.113,0.297,0.113,0.438c0,0.573-0.451,1.039-1.025,1.039c-0.508,0-0.844-0.298-1.039-0.744l-0.661-1.545
	h-4.329l-0.688,1.614c-0.184,0.422-0.547,0.675-0.998,0.675c-0.562,0-0.994-0.45-0.994-1.013
	C131.691,25.324,131.747,25.17,131.816,25.016z M137.9,22.291l-1.363-3.249l-1.362,3.249H137.9z"/>
<path fill="#FF5354" d="M144.628,17.651c0-0.604,0.478-1.083,1.081-1.083h2.938c2.349,0,3.769,1.392,3.769,3.401V20
	c0,2.275-1.771,3.456-3.979,3.456h-1.644v1.955c0,0.603-0.478,1.08-1.083,1.08c-0.604,0-1.081-0.478-1.081-1.08V17.651
	L144.628,17.651z M148.506,21.531c1.082,0,1.717-0.647,1.717-1.491v-0.027c0-0.971-0.677-1.49-1.759-1.49h-1.672v3.008H148.506z"/>
<path fill="#FF5354" d="M155.717,17.651c0-0.604,0.479-1.083,1.082-1.083h2.938c2.35,0,3.768,1.392,3.768,3.401V20
	c0,2.275-1.771,3.456-3.979,3.456h-1.645v1.955c0,0.603-0.479,1.08-1.082,1.08s-1.082-0.478-1.082-1.08V17.651L155.717,17.651z
	 M159.594,21.531c1.083,0,1.717-0.647,1.717-1.491v-0.027c0-0.971-0.676-1.49-1.756-1.49h-1.674v3.008H159.594z"/>
<path fill="#FF5354" d="M166.592,25.367c-0.238-0.168-0.406-0.479-0.406-0.815c0-0.562,0.449-0.995,1.012-0.995
	c0.281,0,0.479,0.098,0.619,0.194c0.744,0.548,1.561,0.885,2.516,0.885c0.887,0,1.42-0.352,1.42-0.926v-0.028
	c0-0.55-0.337-0.83-1.98-1.252c-1.979-0.504-3.261-1.054-3.261-3.008v-0.027c0-1.785,1.435-2.965,3.442-2.965
	c1.193,0,2.234,0.309,3.119,0.872c0.238,0.141,0.478,0.435,0.478,0.856c0,0.563-0.446,0.999-1.011,0.999
	c-0.211,0-0.38-0.057-0.548-0.155c-0.72-0.422-1.394-0.662-2.066-0.662c-0.829,0-1.265,0.381-1.265,0.858v0.029
	c0,0.646,0.421,0.856,2.123,1.291c1.994,0.52,3.117,1.237,3.117,2.953v0.028c0,1.953-1.487,3.049-3.61,3.049
	C168.995,26.548,167.688,26.154,166.592,25.367z"/>
</svg>
