<?xml version="1.0" encoding="utf-8"?>
<!-- Generator: Adobe Illustrator 16.0.3, SVG Export Plug-In . SVG Version: 6.00 Build 0)  -->
<!DOCTYPE svg PUBLIC "-//W3C//DTD SVG 1.1//EN" "http://www.w3.org/Graphics/SVG/1.1/DTD/svg11.dtd">
<svg version="1.1" id="Layer_1" xmlns="http://www.w3.org/2000/svg" xmlns:xlink="http://www.w3.org/1999/xlink" x="0px" y="0px"
	 width="300px" height="300px" viewBox="0 0 300 300" enable-background="new 0 0 300 300" xml:space="preserve">
<g id="Layer_1_2_">
	<g id="Layer_1_1_" display="none">
		<path display="inline" fill="#FF5354" d="M26.506,168.727c0,1.907,1.436,3.514,3.338,3.729l13.012,19.648
			c-0.795,0.711-1.248,1.728-1.248,2.793c0,2.072,1.684,3.754,3.761,3.754c1.5-0.004,2.856-0.896,3.448-2.276h7.149
			c0.572,0.646,1.353,1.081,2.207,1.221l7.606,12.069c-0.01,0.104-0.016,0.219-0.016,0.33c0,2.076,1.682,3.759,3.758,3.759
			c1.519-0.004,2.887-0.918,3.469-2.319l13.549-1.016c0.699,1.034,1.867,1.652,3.113,1.652c0.395,0,0.783-0.059,1.156-0.178
			l4.236,6.354c-0.062,0.267-0.092,0.536-0.092,0.812c0,0.735,0.221,1.457,0.627,2.07l-6.579,13.887
			c-0.433-0.168-0.896-0.26-1.365-0.26c-2.073,0-3.757,1.684-3.757,3.76c0,2.074,1.684,3.758,3.757,3.758
			c1.183,0,2.291-0.554,3.001-1.496l10.704,2.312c0.104,1.99,1.748,3.545,3.743,3.552c2.078,0,3.76-1.682,3.76-3.76
			c0-0.316-0.04-0.62-0.119-0.924l11.692-10.167c0.254,0.06,0.515,0.084,0.774,0.084c2.074,0,3.756-1.683,3.756-3.758
			c0-0.22-0.022-0.437-0.062-0.655l24.354-25.206c0.267,0.062,0.534,0.093,0.805,0.095c1.678,0,3.157-1.117,3.614-2.735
			l12.442-4.224c0.709,1,1.848,1.59,3.066,1.59c0.598,0,1.186-0.146,1.716-0.418l10.32,9.03c-0.017,0.128-0.022,0.251-0.022,0.38
			c0,2.076,1.682,3.758,3.758,3.758c1.447-0.002,2.766-0.836,3.391-2.146l23.117-6.423c0.709,0.956,1.828,1.522,3.016,1.522
			c1.882,0,3.471-1.395,3.721-3.261l31.887-7.271c0.711,0.928,1.81,1.471,2.978,1.474c2.076,0,3.759-1.683,3.759-3.76
			c-0.004-0.856-0.298-1.687-0.832-2.356l13.537-32.874c1.775-0.335,3.064-1.882,3.064-3.69c0-1.334-0.711-2.565-1.862-3.237
			l-9.024-32.308c0.737-0.708,1.154-1.682,1.154-2.703c0-2.077-1.682-3.759-3.758-3.759c-0.257,0-0.518,0.027-0.771,0.081
			l-3.388-3.205l-16.918-18.109c-0.091-2.009-1.739-3.59-3.748-3.594c-0.493,0-0.987,0.097-1.442,0.287l-59.484-27.433
			c-0.561-1.434-1.949-2.382-3.491-2.382c-1.075,0.003-2.093,0.46-2.804,1.264l-45.6-1.699c-0.666-1.181-1.916-1.911-3.271-1.915
			c-1.765,0.008-3.287,1.235-3.666,2.958L65.385,84.969c-0.576-0.34-1.232-0.521-1.906-0.524c-2.074,0-3.758,1.682-3.758,3.759
			c0.004,0.703,0.202,1.39,0.577,1.991l-24.915,43.603c-0.143-0.02-0.279-0.03-0.421-0.033c-2.077,0-3.759,1.681-3.759,3.757
			c0,1.334,0.709,2.571,1.861,3.244l-3.726,24.325C27.673,165.511,26.502,167.011,26.506,168.727z M50.544,171.492l-3.265-8.258
			l32.772-16.386l-19.813,26.193L50.544,171.492z M58.309,175.587l-4.039,5.34l-2.521-6.385L58.309,175.587z M47.311,170.98
			l-11.759-1.877l9.197-4.601L47.311,170.98z M38.053,139.891l43.149,2.768c-0.003,0.076-0.009,0.156-0.009,0.236
			c0.002,0.074,0.006,0.151,0.013,0.228l-34.964,17.482L38.053,139.891z M96.426,180.471c0-0.761-0.234-1.51-0.668-2.138
			l32.139-29.583c0.264,0.1,0.543,0.17,0.822,0.207l-5.086,46.324c-0.588,0.148-1.135,0.435-1.591,0.843l-25.623-15.538
			C96.426,180.55,96.426,180.511,96.426,180.471z M141.923,169.4c0,0.724,0.21,1.432,0.604,2.037l-15.953,22.897l4.957-45.122
			l11.508,17.52C142.322,167.434,141.923,168.395,141.923,169.4z M220.439,129.485c0,0.908,0.332,1.788,0.93,2.47l-20.561,26.605
			c-0.457-0.188-0.947-0.287-1.445-0.287c-0.072-0.004-0.146-0.004-0.219,0l-18.287-29.178c0.514-0.662,0.791-1.472,0.791-2.307
			c0-0.924-0.34-1.815-0.961-2.503l13.057-25.548v0.01l27.527,28.375C220.73,127.79,220.438,128.625,220.439,129.485z
			 M190.919,98.044v-0.003h0.007l-12.77,24.989c-0.086-0.003-0.178-0.003-0.268,0c-0.863,0-1.701,0.3-2.376,0.852l-19.598-10.917
			L190.919,98.044z M113.38,90.77l35.013,21.12c-0.062,0.268-0.095,0.534-0.095,0.809c0,0.974,0.381,1.908,1.062,2.608
			l-18.184,26.722c-0.328-0.197-0.68-0.345-1.048-0.435L113.38,90.77z M114.118,87.922l42.551,4.669l-5.675,16.504
			c-0.36,0.104-0.696,0.265-1.007,0.468L114.118,87.922z M159.54,92.905l28.823,3.164l-33.407,14.242
			c-0.304-0.368-0.675-0.676-1.091-0.905L159.54,92.905z M196.587,159.497c-0.401,0.438-0.69,0.97-0.849,1.54l-46.776,6.537
			c-0.022-0.045-0.051-0.088-0.076-0.125l28.123-37.012c0.288,0.07,0.584,0.111,0.882,0.111c0.176,0,0.353-0.014,0.526-0.041
			L196.587,159.497z M146.624,165.768c-0.302-0.08-0.615-0.119-0.927-0.121l-12.812-19.5c0.073-0.295,0.114-0.597,0.114-0.901
			c0-0.257-0.026-0.513-0.079-0.761l19.07-28.029c0.02,0,0.043,0,0.066,0c0.94-0.003,1.848-0.36,2.543-0.998v0.004l19.565,10.897
			c-0.021,0.144-0.031,0.292-0.034,0.435c0.004,0.71,0.208,1.404,0.588,2.002L146.624,165.768z M93.873,176.232l-4.992-31.916
			l36.936,2.463c0.006,0.014,0.013,0.028,0.019,0.041L93.873,176.232z M88.465,141.463l22.354-49.473l16.485,50.038
			c-0.733,0.441-1.294,1.118-1.588,1.918L88.465,141.463z M86.305,139.394c-0.43-0.167-0.89-0.254-1.354-0.254
			c-0.03,0-0.061,0-0.092,0l-9.914-25.962l33.065-21.996v0.004c0.021,0.011,0.042,0.023,0.062,0.034L86.305,139.394z
			 M82.131,139.892l-43.188-2.77l33.599-22.346L82.131,139.892z M71.508,112.076L38.477,134.05l24.117-42.2v0.01
			c0.287,0.07,0.583,0.107,0.881,0.11c0.118-0.007,0.236-0.013,0.348-0.026L71.508,112.076z M67.199,88.7l38.992,0.28
			c0,0.006,0.006,0.012,0.006,0.024l-32.28,21.473L66.34,90.632C66.805,90.081,67.102,89.415,67.199,88.7z M115.896,58.987
			l-5.699,25.152c-0.141-0.018-0.279-0.023-0.418-0.027c-1.414,0-2.707,0.791-3.346,2.052l-37.142-0.267l45.792-27.762
			C115.309,58.461,115.584,58.749,115.896,58.987z M166.121,58.845l-53.162,25.836l5.661-24.962
			c1.516-0.183,2.772-1.265,3.172-2.736V56.98l44.302,1.652C166.102,58.702,166.107,58.774,166.121,58.845z M167.416,61.348
			l-9.807,28.513l-39.856-4.375L167.416,61.348z M169.96,62.617l19.712,30.542c-0.038,0.066-0.07,0.14-0.102,0.21l-29.09-3.194
			L169.96,62.617z M230.743,86.542c-0.067,0.184-0.12,0.372-0.16,0.561l-34.261,6.082c-0.644-1.245-1.928-2.03-3.334-2.03
			c-0.387,0-0.767,0.06-1.137,0.181l-19.496-30.208c0.348-0.317,0.638-0.694,0.849-1.118L230.743,86.542z M232.002,90.864
			c-0.816,3.938-1.992,9.619-3.418,16.581c-1.09,5.327-2.178,10.698-3,14.822c-0.281,1.422-0.473,2.44-0.682,3.515
			c-0.233-0.047-0.471-0.074-0.707-0.074c-0.113,0.003-0.225,0.013-0.334,0.027l-27.803-28.657c0.229-0.328,0.407-0.688,0.521-1.075
			l34.511-6.121v-0.007C231.331,90.255,231.641,90.589,232.002,90.864z M236.879,164.366c0,0.577,0.133,1.143,0.391,1.661
			l-18.221,13.802l6.916-46.395l12.702,27.739C237.555,161.854,236.878,163.061,236.879,164.366z M227.861,130.8l37.24,19.648
			c-0.021,0.125-0.033,0.25-0.037,0.378l-21.861,10.8c-0.465-0.435-1.029-0.741-1.643-0.897L227.861,130.8z M255.802,110.881
			c-0.2,0.36-0.341,0.756-0.414,1.167l-27.602,13.661c0.181-0.937,0.327-1.715,0.561-2.89c0.817-4.115,1.91-9.482,2.998-14.809
			c1.402-6.828,2.563-12.449,3.384-16.42c0.293-0.034,0.58-0.107,0.854-0.21l17.345,16.425L255.802,110.881z M267.691,147.361
			c-0.435,0.14-0.842,0.353-1.199,0.637l-37.459-19.761l26.996-13.363c0.701,0.98,1.824,1.568,3.029,1.581L267.691,147.361z
			 M243.488,166.809c0.58-0.68,0.904-1.545,0.908-2.442c-0.004-0.06-0.009-0.12-0.012-0.181l21.672-10.701v0.004
			c0.193,0.209,0.413,0.4,0.647,0.562l-13.211,32.093c-0.074-0.013-0.15-0.02-0.228-0.024L243.488,166.809z M216.652,195.877
			l1.803-12.066l20.98-15.891v0.012c0.387,0.127,0.795,0.197,1.201,0.197c0.113-0.001,0.233-0.009,0.348-0.025l9.592,18.937
			c-0.702,0.612-1.148,1.465-1.256,2.387l-31.84,7.265C217.246,196.382,216.969,196.104,216.652,195.877z M192.441,203.521
			l22.803-17.271l-1.338,8.966c-1.652,0.249-2.941,1.561-3.161,3.217L192.441,203.521z M186.97,202.812l12.968-37.084
			c1.828-0.283,3.185-1.857,3.185-3.709c0-0.504-0.101-1.002-0.294-1.469l20.126-26.046l-7.119,47.759l-28.06,21.25
			C187.542,203.244,187.271,203.006,186.97,202.812z M172.723,194.425c0.135-0.386,0.201-0.793,0.204-1.204
			c-0.003-0.016-0.003-0.021-0.003-0.037l23.275-25.304l-12.035,34.414c-0.58,0.124-1.121,0.384-1.585,0.758L172.723,194.425z
			 M149.739,170.311l46.337-6.479l-0.004,0.01c0.008,0,0.008,0,0.01,0l-24.434,26.561c-0.685-0.601-1.568-0.937-2.48-0.942
			c-0.446,0.006-0.891,0.088-1.311,0.24L149.739,170.311z M148.22,172.814l17.562,18.789c-0.158,0.33-0.268,0.676-0.321,1.03
			l-12.142,4.116c-0.338-0.593-0.828-1.088-1.428-1.426L148.22,172.814z M146.386,197.745l-18.28-0.681l16.729-24.008
			c0.192,0.049,0.387,0.078,0.588,0.09l3.556,21.842C147.684,195.373,146.691,196.425,146.386,197.745z M123.633,224.705
			l1.438-22.059c1.496-0.215,2.717-1.299,3.104-2.758l18.69,0.689c0.006,0.018,0.018,0.037,0.025,0.051L123.633,224.705z
			 M118.393,225.611l-15.938-6.284c0.003-0.088,0.01-0.183,0.01-0.267c0-0.256-0.026-0.504-0.076-0.748l19.843-15.487l-1.4,21.552
			C119.891,224.467,119.02,224.907,118.393,225.611z M105.316,235.82c0.789-0.59,1.315-1.469,1.465-2.441l9.496-1.73l-9.232,8.031
			c-0.398-0.246-0.838-0.414-1.295-0.494L105.316,235.82z M103.337,229.064l-2.574-6.862c0.156-0.103,0.302-0.214,0.445-0.339
			l16.229,6.4c0,0.102,0.012,0.205,0.022,0.31l-11.336,2.061C105.473,229.719,104.452,229.145,103.337,229.064z M91.955,238.178
			l8.182-3.021v0.005c0.602,0.748,1.473,1.242,2.43,1.372l0.416,3.231c-0.268,0.182-0.508,0.395-0.72,0.639L91.955,238.178z
			 M97.938,222.73v0.006c0.002,0,0.01,0,0.012,0l2.699,7.201c-0.748,0.631-1.217,1.532-1.316,2.512l-7.271,2.688L97.938,222.73z
			 M91.781,205.23l1.924-21.151c0.583-0.167,1.119-0.476,1.561-0.896l25.531,15.478c-0.008,0.09-0.016,0.178-0.016,0.266
			c0.004,0.433,0.078,0.864,0.231,1.273l-20.188,15.756c-0.621-0.429-1.362-0.656-2.116-0.656c-0.667,0-1.323,0.183-1.896,0.519
			l-3.838-5.754c0.281-0.537,0.428-1.142,0.432-1.746C93.402,207.089,92.798,205.936,91.781,205.23z M91.148,177.039
			c-0.416,0.182-0.791,0.439-1.111,0.758l-26.646-4.251l20.473-27.058c0.355,0.106,0.724,0.163,1.09,0.166
			c0.479-0.003,0.953-0.094,1.4-0.274L91.148,177.039z M72.531,207.759l18.275-24.028v-0.004c0.033,0.021,0.066,0.041,0.098,0.062
			l-1.896,20.833c-1.55,0.265-2.771,1.475-3.057,3.021l-12.95,0.963C72.882,208.305,72.727,208.021,72.531,207.759z M61.053,196.883
			c0.865-0.658,1.404-1.654,1.479-2.742l25.697-11.681l-18.119,23.83c-0.195-0.034-0.396-0.047-0.592-0.047
			c-0.767,0-1.514,0.233-2.144,0.669L61.053,196.883z M55.488,183.99l5.979-7.903l25.133,4.015L61.634,191.45
			c-0.715-0.836-1.756-1.317-2.853-1.317c-0.281,0-0.561,0.035-0.832,0.098L55.488,183.99z M48.631,193.055l4.865-6.43l2.092,5.292
			c-0.309,0.497-0.495,1.06-0.548,1.646h-6.175C48.797,193.387,48.722,193.217,48.631,193.055z M32.664,171.617
			c0.035-0.033,0.074-0.067,0.111-0.107v0.006l15.737,2.51l3.771,9.535l-5.857,7.74c-0.271-0.078-0.549-0.132-0.832-0.152
			L32.664,171.617z M32.132,165.475l3.631-23.709l7.947,20.11l-10.144,5.066C33.23,166.329,32.738,165.822,32.132,165.475z"/>
	</g>
	<path fill="#FF5354" d="M19.443,136.4l22.584,83.079l-21.267,16.354c-0.045,0.045-0.071,0.071-0.096,0.095l-0.062,0.074
		l-0.132,0.264c-0.006,0.053-0.004,0.096,0.003,0.133l1.4,6.424c0.046,0.213,0.238,0.369,0.459,0.369l26.509-0.008l0.359-0.234
		l0.073-0.15l0.062-0.27l11.44-85.189l27.957,9.331l15.49,92.729c0.037,0.227,0.24,0.396,0.469,0.396l32.647-0.012
		c0.041-0.014,0.079-0.028,0.117-0.035l0.165-0.036l0.031-0.034c0.021-0.027,0.033-0.041,0.049-0.056l0.092-0.106
		c0.03-0.064,0.057-0.106,0.081-0.146l16.71-47.099l46.326,4.707l6.708,42.263c0.017,0.054,0.026,0.077,0.034,0.103l0.035,0.133
		c0.002,0.051,0.035,0.08,0.099,0.142l0.083,0.069c0.047,0.027,0.095,0.045,0.163,0.063c0.04,0.011,0.077,0.021,0.11,0.032
		l0.062,0.012h40.918c0.054,0,0.104-0.01,0.155-0.033l0.048-0.021l0.04-0.054c0.033-0.08,0.058-0.129,0.085-0.178
		c0.036-0.062,0.077-0.125,0.12-0.188l0.021-0.03l0.011-0.045c0.004-0.072,6.523-81.524,6.981-87.229l23.017,12.487
		c0.151,0.078,0.332,0.071,0.461-0.009c0.144-0.087,0.233-0.243,0.233-0.406v-7.126c-0.015-0.075-0.021-0.11-0.024-0.146
		l-0.012-0.043c-0.012-0.03-0.068-0.146-0.068-0.146c-0.027-0.058-0.045-0.099-0.06-0.141l-0.089-0.144L251.206,148l-9.884-44.105
		l-0.082-0.168c-0.037-0.059-0.059-0.09-0.077-0.122l-0.022-0.033c-0.013-0.023-0.029-0.047-0.047-0.071l-0.096-0.075l-0.116-0.04
		l-0.093-0.101l-70.271-35.509l-7.998-30.749c-0.031-0.12-0.104-0.223-0.207-0.288c-0.101-0.047-0.183-0.067-0.26-0.067
		c-0.02,0-0.07,0.003-0.117,0.019L72.559,66.063l-0.107,0.122l-0.137,0.001l-0.037,0.028c-0.018,0.013-0.219,0.18-0.24,0.199
		l-0.038,0.037l-52.476,69.552C19.434,136.122,19.4,136.27,19.443,136.4z M279.354,177.162v6.141l-19.875-10.781L279.354,177.162z
		 M278.296,175.949l-21.735-5.081l-4.959-21.16L278.296,175.949z M239.461,106.279l-38.46,109.764l-45.827-4.656L239.461,106.279z
		 M170.506,68.818l69.591,35.167L154.914,210.21L170.506,68.818z M249.037,151.438l-40.741,106.08l-6.481-40.854L249.037,151.438z
		 M202.843,213.637l37.886-108.099l9.541,42.59L202.843,213.637z M250.458,201.42l0.729-49.341l4.51,19.214l-5.897,73.631
		L250.458,201.42z M250.264,150.88l-1.605,107.974h-39.863L250.264,150.88z M72.541,69.744l16.018,95.874l-27.656-9.229
		L72.541,69.744z M152.837,210.199l-63.253-44.162L73.395,69.152L152.837,210.199z M169.589,68.559l-15.628,141.702L73.299,67.065
		L169.589,68.559z M75.298,66.156l86.437-28.41l7.769,29.868L75.298,66.156z M136.622,258.854h-31.53l-14.979-89.672
		L136.622,258.854z M153.705,211.948l-16.387,46.198l-46.861-90.351L153.705,211.948z M44.691,242.248H22.712l-1.158-5.328
		L44.691,242.248z M71.783,68.301l-1.344,9.976L48.678,240.344l-5.637-20.712l-0.053-0.083l-0.006-0.16l-22.571-83.005
		L71.783,68.301z M42.291,220.459l5.883,21.627l-26.165-6.027L42.291,220.459z"/>
</g>
<g id="Layer_2_1_">
	<circle fill="#FF5354" cx="162.03" cy="37.673" r="2.833"/>
	<circle fill="#FF5354" cx="72.403" cy="67.048" r="2.833"/>
	<circle fill="#FF5354" cx="169.653" cy="68.048" r="2.833"/>
	<circle fill="#FF5354" cx="240.653" cy="104.548" r="2.833"/>
	<circle fill="#FF5354" cx="250.987" cy="149.215" r="2.833"/>
	<circle fill="#FF5354" cx="279.796" cy="176.884" r="2.833"/>
	<circle fill="#FF5354" cx="279.796" cy="184.141" r="2.833"/>
	<circle fill="#FF5354" cx="256.257" cy="171.566" r="2.833"/>
	<circle fill="#FF5354" cx="248.882" cy="259.13" r="2.833"/>
	<circle fill="#FF5354" cx="208.319" cy="259.13" r="2.833"/>
	<circle fill="#FF5354" cx="137.319" cy="259.13" r="2.833"/>
	<circle fill="#FF5354" cx="104.694" cy="259.13" r="2.833"/>
	<circle fill="#FF5354" cx="201.194" cy="216.441" r="2.833"/>
	<circle fill="#FF5354" cx="154.319" cy="210.775" r="2.833"/>
	<circle fill="#FF5354" cx="89.069" cy="166.4" r="2.833"/>
	<circle fill="#FF5354" cx="60.819" cy="156.525" r="2.833"/>
	<circle fill="#FF5354" cx="48.569" cy="242.15" r="2.833"/>
	<circle fill="#FF5354" cx="22.256" cy="242.15" r="2.833"/>
	<circle fill="#FF5354" cx="20.881" cy="235.775" r="2.833"/>
	<circle fill="#FF5354" cx="42.256" cy="219.9" r="2.833"/>
	<circle fill="#FF5354" cx="19.999" cy="136.502" r="2.833"/>
</g>
</svg>
